<?xml version="1.0" encoding="utf-8"?>
<!-- Created with Inkscape (http://www.inkscape.org/) --><svg id="svg2" inkscape:export-filename="/Volumes/Daten/0000_Neu_Sortiert/3000_Daten/3300_Tinned-Software_Blog/3310_Blog_Images/3312_Blog_Post_Images/2014-02-20_Find_in_book/Books_2.png" inkscape:export-xdpi="60.860001" inkscape:export-ydpi="60.860001" inkscape:version="0.48.2 r9819" sodipodi:docname="Books_2.svg" version="1.1" viewBox="0 0 1052.4 744.09" xmlns="http://www.w3.org/2000/svg" xmlns:cc="http://creativecommons.org/ns#" xmlns:dc="http://purl.org/dc/elements/1.1/" xmlns:inkscape="http://www.inkscape.org/namespaces/inkscape" xmlns:ns1="http://sozi.baierouge.fr" xmlns:rdf="http://www.w3.org/1999/02/22-rdf-syntax-ns#" xmlns:sodipodi="http://sodipodi.sourceforge.net/DTD/sodipodi-0.dtd" xmlns:xlink="http://www.w3.org/1999/xlink"><defs id="defs4">
<linearGradient id="linearGradient3981">
<stop id="stop3983" offset="0" style="stop-color:#4b82d5"/>
<stop id="stop3985" offset="1" style="stop-color:#80a5dd"/>
</linearGradient>
<linearGradient gradientTransform="translate(-54,18)" gradientUnits="userSpaceOnUse" id="linearGradient3916" inkscape:collect="always" x1="815.92" x2="65.363" y1="393.03" y2="252.48">
<stop id="stop3927" offset="0" style="stop-color:#abe6ab"/>
<stop id="stop3925" offset=".5" style="stop-color:#66d266"/>
<stop id="stop3921" offset="1" style="stop-color:#6cd76c"/>
</linearGradient>
<linearGradient gradientTransform="translate(-54,18)" gradientUnits="userSpaceOnUse" id="linearGradient3943" inkscape:collect="always" x1="603.98" x2="104.71" y1="689.37" y2="318.36">
<stop id="stop3947" offset="0" style="stop-color:#8edc8e"/>
<stop id="stop3949" offset=".23205" style="stop-color:#7ad77a"/>
<stop id="stop3951" offset=".63308" style="stop-color:#66d266"/>
<stop id="stop3953" offset="1" style="stop-color:#6cd76c"/>
</linearGradient>
<linearGradient gradientTransform="translate(-72.063 25.903)" gradientUnits="userSpaceOnUse" id="linearGradient3987" inkscape:collect="always" x1="365.71" x2="610.08" xlink:href="#linearGradient3981" y1="229.87" y2="413.47"/>
<linearGradient gradientTransform="translate(-72.063 25.903)" gradientUnits="userSpaceOnUse" id="linearGradient3995" inkscape:collect="always" x1="191.36" x2="463.8" xlink:href="#linearGradient3981" y1="267.24" y2="603.31"/>
</defs><metadata>
<rdf:RDF>
<cc:Work>
<dc:format>image/svg+xml</dc:format>
<dc:type rdf:resource="http://purl.org/dc/dcmitype/StillImage"/>
<cc:license rdf:resource="http://creativecommons.org/licenses/publicdomain/"/>
<dc:publisher>
<cc:Agent rdf:about="http://openclipart.org/">
<dc:title>Openclipart</dc:title>
</cc:Agent>
</dc:publisher>
</cc:Work>
<cc:License rdf:about="http://creativecommons.org/licenses/publicdomain/">
<cc:permits rdf:resource="http://creativecommons.org/ns#Reproduction"/>
<cc:permits rdf:resource="http://creativecommons.org/ns#Distribution"/>
<cc:permits rdf:resource="http://creativecommons.org/ns#DerivativeWorks"/>
</cc:License>
</rdf:RDF>
</metadata><g transform="translate(526.2, 372.045)"><g transform="translate(-300, -300)"><g id="centered-group">

<sodipodi:namedview bordercolor="#666666" borderopacity="1.0" id="base" inkscape:current-layer="layer8" inkscape:cx="-161.77814" inkscape:cy="292.48683" inkscape:document-units="px" inkscape:pageopacity="0.0" inkscape:pageshadow="2" inkscape:window-height="982" inkscape:window-maximized="1" inkscape:window-width="1920" inkscape:window-x="0" inkscape:window-y="0" inkscape:zoom="0.71577333" pagecolor="#ffffff" showgrid="false"/>
<g id="layer3" inkscape:groupmode="layer" inkscape:label="Book2">
<g id="g4272">
<path d="m323.95 203.84-266.62 161.79 377.13 286.25s170.95-140.53 251.85-207.44c0 0 12.091-10.178 11.15-19.77-1.7295-17.64-13.016-21.365-13.016-21.365l-316.13-202.15s-10.304-4.6746-20.937-3.6086c-14.33 1.4368-23.418 6.3013-23.418 6.3013z" id="path3908" inkscape:connector-curvature="0" sodipodi:nodetypes="ccccsccsc" style="stroke-linejoin:round;stroke:#217821;stroke-linecap:round;stroke-width:10;fill:#5fd35f"/>
<path d="m680.02 423.58-256.97 212.39-8.6144-22.172 4.4706-32.7 246.59-201.63s-2.2575 13.943 1.1142 26.492c3.3717 12.55 13.408 17.626 13.408 17.626z" id="path3955" inkscape:connector-curvature="0" sodipodi:nodetypes="ccccczc" style="stroke-linejoin:round;stroke:#646464;fill:#f0f0f0"/>
<path d="m304.28 159.84-245.53 147.75 379.88 281.81 238.01-195.87s12.091-10.178 11.15-19.77c-1.7295-17.64-13.016-21.365-13.016-21.365l-322.14-198.15s-10.304-4.6746-20.937-3.6086c-14.33 1.4368-27.411 9.2053-27.411 9.2053z" id="path3904" inkscape:connector-curvature="0" sodipodi:nodetypes="ccccsccsc" style="stroke-linejoin:round;stroke:#217821;stroke-linecap:round;stroke-width:10;fill:url(#linearGradient3916)"/>
<path d="m58.813 307.56s-5.2779 6.1348-6.9144 11.232c-2.4755 7.7103-3.194 23.309-0.73612 32.947 1.9911 7.8078 5.8491 13.954 5.8491 13.954l377.07 285.98s-7.6262-23.835-5.1186-38.523c3.912-16.8 9.6927-23.807 9.6927-23.807z" id="path3935" inkscape:connector-curvature="0" sodipodi:nodetypes="cssccccc" style="stroke-linejoin:round;stroke:#217821;stroke-linecap:round;stroke-width:10;fill:url(#linearGradient3943)"/>
</g>
</g>
<g id="layer9" inkscape:groupmode="layer" inkscape:label="Book1-Label">
<rect height="110.42" id="rect4356" rx="10.171" ry="12.49" style="fill-rule:evenodd;stroke:#676767;stroke-width:5.2859;fill:#ffffff" transform="matrix(.86006 -.51019 .81729 .57622 0 0)" width="169.87" x="-158.37" y="402.48"/>
</g>
<g id="layer2" inkscape:groupmode="layer" inkscape:label="Book2">
<g id="g4266">
<path d="m387.14 144.98-319.01 115.85 271.73 346.61 349.8-158.48s14.354-6.6142 15.986-16.113c3.0023-17.468-6.895-24.048-6.895-24.048l-263.5-256.42s-8.6991-7.2358-19.234-9.0227c-14.199-2.4082-28.87 1.6198-28.87 1.6198z" id="path3957" inkscape:connector-curvature="0" sodipodi:nodetypes="ccccsccsc" style="stroke-linejoin:round;stroke:#304f84;stroke-linecap:round;stroke-width:10;fill:#4b82d5"/>
<path d="m688.3 428.73-355.23 164.04-11.974-26.743 8.382-37.519 353.24-158.46s-5.8996 16.595-5.4339 28.769c0.46567 12.174 11.018 29.91 11.018 29.91z" id="path3961" inkscape:connector-curvature="0" sodipodi:nodetypes="ccccczc" style="stroke-linejoin:round;stroke:#646464;stroke-linecap:round;stroke-width:1px;fill:#f0f0f0"/>
<path d="m395.25 76.823-331.01 117.85 281.74 344.61 357.79-160.48s14.354-6.6142 15.986-16.113c3.0023-17.468-6.895-24.048-6.895-24.048l-269.5-254.41s-8.6991-7.2358-19.234-9.0227c-14.199-2.4082-28.87 1.6198-28.87 1.6198z" id="path3085" inkscape:connector-curvature="0" sodipodi:nodetypes="ccccsccsc" style="stroke-linejoin:round;stroke:#304f84;stroke-linecap:round;stroke-width:10;fill:url(#linearGradient3987)"/>
<path d="m64.283 194.66s-5.5613 3.305-7.8934 15.084c-2.0574 10.391-1.3052 17.722 0.25525 28.174 1.3313 8.9174 4.6329 13.827 4.6329 13.827l278.41 355.41s-4.0893-10.606-5.7449-19.904-0.77193-24.13 2.1168-31.738c2.8887-7.6084 9.6744-16.411 9.6744-16.411z" id="path3959" inkscape:connector-curvature="0" sodipodi:nodetypes="csscczzcc" style="stroke-linejoin:round;stroke:#304f84;stroke-linecap:round;stroke-width:10;fill:url(#linearGradient3995)"/>
</g>
</g>
<g id="layer8" inkscape:groupmode="layer" inkscape:label="Book2-Label">
<rect height="104.46" id="rect4358" rx="11.588" ry="11.816" style="fill-rule:evenodd;stroke:#676767;stroke-width:5.4877;fill:#ffffff" transform="matrix(.94101 -.33838 .66457 .74722 0 0)" width="193.53" x="9.3328" y="305.87"/>
</g>

</g></g></g></svg>