<?xml version="1.0" encoding="UTF-8" standalone="no"?>
<svg xmlns:rdf="http://www.w3.org/1999/02/22-rdf-syntax-ns#" xmlns="http://www.w3.org/2000/svg" height="254mm" width="370.82mm" version="1.1" xmlns:cc="http://creativecommons.org/ns#" xmlns:dc="http://purl.org/dc/elements/1.1/" viewBox="0 0 1313.9298 900">
<g transform="translate(-196.07 275.04)">
<g transform="matrix(3.2669 0 0 3.2669 -444.48 -1416.7)">
<path d="m262.24 371.35c-0.22162-0.003-0.44409 0.0304-0.65625 0.0996-1.4202 0.73311-2.6606 1.7782-3.9961 2.6543-2.1724 1.5469-4.3859 3.041-6.502 4.6641-1.0237 0.9011-0.786 2.725 0.44922 3.3203 1.3805 0.75352 3.0474 0.29051 4.2637-0.5664 2.8086-1.7193 5.0696-4.146 7.4707-6.3652 0.85912-0.65556 1.307-1.9491 0.63476-2.8848-0.34254-0.58683-0.99921-0.91286-1.6641-0.92188zm-18.85 79.918c-4.7146 0.18518-9.82 3.7162-10.059 8.7324 0.0669 3.4822 3.7425 5.788 6.9277 5.9219 2.8232-0.23559 5.4094-1.7506 7.6641-3.375 2.6943-2.1799 3.639-6.7096 0.97657-9.2891-1.4358-1.4076-3.5356-2.0108-5.5098-1.9902zm121.27 1.3223c-0.94976 0.054-1.6926 0.72684-2.457 1.2168-3.0568 2.194-5.9803 4.566-8.9062 6.9297-3.8708 3.1724-7.7384 6.3596-11.359 9.8184-0.57224 0.60002-1.2873 1.1409-1.5586 1.9551-0.31207 0.91327 0.13171 2.001 0.99805 2.4277 0.71644 0.38549 1.6111 0.24294 2.2598-0.21679 1.6588-1.0726 3.1884-2.3282 4.748-3.5371 4.8846-3.8796 9.6985-7.852 14.402-11.949 1.189-1.0661 2.4235-2.0907 3.4941-3.2793 0.67345-0.75584 0.67744-2.0165-0.0508-2.7363-0.39258-0.42931-0.98961-0.65504-1.5684-0.6289h-0.002zm-76.053 36.064c-0.13452-0.009-0.27048-0.004-0.39844 0.004-1.7386 0.40973-3.1789 1.5852-4.6465 2.5508-3.8794 2.8499-7.5825 5.9955-10.744 9.6367-0.88068 1.0276-1.9779 2.4513-1.2129 3.8457 0.59858 1.2386 2.2682 1.3797 3.3223 0.6543 2.5743-1.6286 4.7183-3.8349 7-5.834 2.72-2.5242 5.4941-5.0002 8.1387-7.5996 0.8535-1.072 0.28042-2.8615-1.0703-3.1816-0.12082-0.0455-0.25416-0.0672-0.38867-0.0762zm-69.914 84.514c-4.7754-0.14805-10.216 4.6655-8.6973 9.623 3.208 5.026 11.782 3.566 14.582-1.1738 1.5685-2.8454 1.0715-7.8024-2.8477-8.1953-0.99683-0.20548-2.0206-0.2785-3.0371-0.25391z" fill="#fff"/>
<path d="m237.32 624.14c-11.572-2.041-21.64-7.6263-31.921-17.71l-9.3287-9.149 0.01-9.3325c0.0128-12.684 1.9493-23.662 5.6495-32.029 4.3027-9.7293 4.2293-19.722-0.20854-28.372-4.2768-8.3363-5.1531-51.611-1.4464-71.432 1.1572-6.1875 2.7111-15.373 3.4532-20.412 0.74209-5.0389 3.2992-14.32 5.6825-20.625 4.0022-10.588 6.4856-16.195 14.415-32.551 3.9014-8.0468 10.17-12.217 18.748-12.471 5.707-0.16955 7.0942-0.79312 12.212-5.4892 8.6789-7.9635 12.928-9.5946 25.235-9.6872 8.4052-0.0632 11.397-0.59544 14.32-2.5474 11.359-7.5854 41.93 1.1233 41.93 11.945 0 3.218 0.32756 3.3819 8.2297 4.1198 10.297 0.96153 15.266 3.9341 21.778 13.028 6.5649 9.1678 6.6432 8.901-17.803 60.636-6.6509 14.075-6.9898 17.292-1.2539 11.906 19.782-18.577 33.128-20.747 41.651-6.7695 9.1458 14.999 2.9225 23.801-50.102 70.867-39.989 35.496-41.941 37.947-35.7 44.843 1.8358 2.0286-2.0721 42.345-4.9982 51.564-0.80257 2.5286-1.1085 2.6198-9.9266 2.9559-3.4375 0.13104-10.222 1.6955-15.077 3.4766-10.166 3.7296-25.059 5.0849-35.548 3.235zm-16.168-41.193c2.8817-1.5422 3.2527-7.2141 0.54002-8.2551-5.2483-2.014-13.709 5.5811-9.3144 8.3612 2.4101 1.5246 5.804 1.4836 8.7744-0.10613zm67.418-92.28c0.34375-0.31722-0.21875-0.11812-1.25 0.44249-4.1012 2.2294-12.584 9.7062-13.931 12.279-0.78551 1.5002 2.1683-0.61862 6.564-4.7085s8.2734-7.6957 8.6172-8.0129zm66.562-27.526c5.3281-4.4223 9.6875-8.2713 9.6875-8.5532 0-0.68596-13.113 9.7471-19.375 15.415-7.0768 6.4058-1.763 2.6417 9.6875-6.8622zm-110.17-0.84642c5.1762-2.6767 4.8058-8.4704-0.5809-9.0866-6.3808-0.72987-12.176 6.8838-7.3698 9.683 2.9394 1.712 3.5797 1.664 7.9507-0.59636zm13.905-85.666 4.0822-3.8627-5 3.4996c-2.75 1.9248-5.2344 3.663-5.5208 3.8627-0.28646 0.19968 0.12654 0.36306 0.91778 0.36306 0.79123 0 3.2756-1.7382 5.5208-3.8627z" fill="#e7cc87"/>
<path d="m237.32 624.14c-11.572-2.041-21.64-7.6263-31.921-17.71l-9.3287-9.149 0.01-9.3325c0.0128-12.684 1.9493-23.662 5.6495-32.029 4.3027-9.7293 4.2293-19.722-0.20854-28.372-4.2768-8.3363-5.1531-51.611-1.4464-71.432 1.1572-6.1875 2.7111-15.373 3.4532-20.412 0.74209-5.0389 3.2992-14.32 5.6825-20.625 4.0022-10.588 6.4856-16.195 14.415-32.551 3.9014-8.0468 10.17-12.217 18.748-12.471 5.707-0.16955 7.0942-0.79312 12.212-5.4892 8.6789-7.9635 12.928-9.5946 25.235-9.6872 8.4052-0.0632 11.397-0.59544 14.32-2.5474 11.359-7.5854 41.93 1.1233 41.93 11.945 0 3.218 0.32756 3.3819 8.2297 4.1198 10.297 0.96153 15.266 3.9341 21.778 13.028 6.5649 9.1678 6.6432 8.901-17.803 60.636-6.6509 14.075-6.9898 17.292-1.2539 11.906 19.782-18.577 33.128-20.747 41.651-6.7695 9.1458 14.999 2.9225 23.801-50.102 70.867-39.989 35.496-41.941 37.947-35.7 44.843 1.8358 2.0286-2.0721 42.345-4.9982 51.564-0.80257 2.5286-1.1085 2.6198-9.9266 2.9559-3.4375 0.13104-10.222 1.6955-15.077 3.4766-10.166 3.7296-25.059 5.0849-35.548 3.235zm-14.015-42.094c3.2054-4.3045 1.4244-7.1903-4.367-7.0759-2.8915 0.0571-4.9677-0.36479-4.6137-0.9375 1.3342-2.1588-0.42909-0.9169-3.3486 2.3584-1.6667 1.8698-2.0106 2.6153-0.76429 1.6567 2.0926-1.6095 2.1993-1.4768 1.3933 1.7345-1.4816 5.9032 7.6714 7.6742 11.7 2.2639zm31.966-51.867c6.6397-32.203 19.464-46.976 48.157-55.476 3.9806-1.1792-0.36375-23.584-6.1116-31.519l-3.7615-5.1926-14.055-0.009c-17.722-0.0119-28.637-1.7116-36.385-5.666l-6.0804-3.1032-5.7946 4.1332c-3.187 2.2733-8.4878 8.0664-11.78 12.873l-5.985 8.7402 1.9718 8.0783c2.4921 10.21 3.986 36.768 2.1926 38.981-5.1282 6.3259-6.5374 30.563-1.8819 32.366 8.3419 3.2319 21.587 5.9741 29.162 6.0375l8.2246 0.0688 2.1263-10.312zm-14.82-53.43c-10.429-4.758-12.238-14.507-4.0809-21.982 9.9815-9.1474 24.706-4.0097 24.706 8.6204 0 5.9602-6.0527 13.328-10.981 13.368-1.1792 0.01-3.269 0.2686-4.644 0.57601-1.375 0.30742-3.625 0.0456-5-0.58168zm7.5256-15.04c1.1276-1.246 1.8644-3.5775 1.6373-5.1811-0.96291-6.7986-14.788-3.0593-14.788 3.9997 0 4.8566 9.086 5.6728 13.151 1.1814zm42.28 29.896c9.147-6.4236 9.3502-7.9582 0.45681-3.4496-7.103 3.6009-16.825 11.852-19.062 16.178-3.3666 6.5104-1.8716 6.4759 4.0344-0.093 3.2229-3.5846 9.7799-9.2705 14.571-12.635zm18.611-11.014c2.2448-2.0057 3.6411-4.0869 3.1031-4.625-0.53807-0.53806-3.0596 1.103-5.6033 3.6467-5.4615 5.4615-3.414 6.2626 2.5002 0.9783zm39.231-10.416c5.3277-4.2969 12.725-10.249 16.438-13.227 6.7594-5.4205 8.0696-8.0184 2.5833-5.1218-1.6058 0.84777-8.4819 6.0034-15.28 11.457-6.7984 5.4536-13.083 10.193-13.966 10.532-0.88281 0.33877-1.9122 1.4162-2.2875 2.3943-1.4292 3.7246 3.1511 1.5156 12.512-6.0342zm-120.22-68.285c1.8536-3.6579 3.0051-7.0158 2.5589-7.462-1.416-1.416-4.3367 3.8477-6.8876 12.413-2.765 9.2845-3.1558 12.862-0.66733 6.1107 0.89418-2.4261 3.1424-7.4039 4.996-11.062zm31.452-23.694c11.079-8.0483 9.6406-10.865-1.596-3.1256-3.6597 2.5205-6.654 5.0518-6.654 5.625 0 2.0359 3.4429 0.99282 8.25-2.4994zm42.137-15.753c1.2443-0.94339 1.8068-1.9844 1.25-2.3135-1.3308-0.78649-6.156 1.0682-7.2082 2.7706-1.1919 1.9285 3.2624 1.5868 5.9582-0.45715z" fill="#e1d739"/>
<path d="m237.32 624.14c-11.572-2.041-21.64-7.6263-31.921-17.71l-9.3287-9.149 0.01-9.3325c0.0128-12.684 1.9493-23.662 5.6495-32.029 4.3027-9.7293 4.2293-19.722-0.20854-28.372-4.2768-8.3363-5.1531-51.611-1.4464-71.432 1.1572-6.1875 2.7111-15.373 3.4532-20.412 0.74209-5.0389 3.2992-14.32 5.6825-20.625 4.0022-10.588 6.4856-16.195 14.415-32.551 3.9014-8.0468 10.17-12.217 18.748-12.471 5.707-0.16955 7.0942-0.79312 12.212-5.4892 8.6789-7.9635 12.928-9.5946 25.235-9.6872 8.4052-0.0632 11.397-0.59544 14.32-2.5474 11.359-7.5854 41.93 1.1233 41.93 11.945 0 3.218 0.32756 3.3819 8.2297 4.1198 10.297 0.96153 15.266 3.9341 21.778 13.028 6.5649 9.1678 6.6432 8.901-17.803 60.636-6.6509 14.075-6.9898 17.292-1.2539 11.906 19.782-18.577 33.128-20.747 41.651-6.7695 9.1458 14.999 2.9225 23.801-50.102 70.867-39.989 35.496-41.941 37.947-35.7 44.843 1.8358 2.0286-2.0721 42.345-4.9982 51.564-0.80257 2.5286-1.1085 2.6198-9.9266 2.9559-3.4375 0.13104-10.222 1.6955-15.077 3.4766-10.166 3.7296-25.059 5.0849-35.548 3.235zm-9.9591-30.545c8.5719-4.4327 8.5492-15.373-0.0409-19.664-6.0832-3.0389-10.41-2.735-14.904 1.0467-11.08 9.323 1.8268 25.401 14.945 18.618zm27.91-63.416c6.6397-32.203 19.464-46.976 48.157-55.476 3.9806-1.1792-0.36375-23.584-6.1116-31.519l-3.7615-5.1926-14.055-0.009c-17.722-0.0119-28.637-1.7116-36.385-5.666l-6.0804-3.1032-5.7946 4.1332c-3.187 2.2733-8.4878 8.0664-11.78 12.873l-5.985 8.7402 1.9718 8.0783c2.4921 10.21 3.986 36.768 2.1926 38.981-5.1282 6.3259-6.5374 30.563-1.8819 32.366 8.3419 3.2319 21.587 5.9741 29.162 6.0375l8.2246 0.0689 2.1263-10.312zm34.98-38.57c9.147-6.4236 9.3502-7.9582 0.45681-3.4496-7.103 3.6009-16.825 11.852-19.062 16.178-3.3666 6.5104-1.8716 6.4759 4.0344-0.093 3.2229-3.5846 9.7799-9.2705 14.571-12.635zm18.611-11.014c2.2448-2.0057 3.6411-4.0869 3.1031-4.625-0.53807-0.53806-3.0596 1.103-5.6033 3.6467-5.4615 5.4615-3.414 6.2626 2.5002 0.9783zm39.231-10.416c5.3277-4.2969 12.725-10.249 16.438-13.227 6.7594-5.4205 8.0696-8.0184 2.5833-5.1218-1.6058 0.84777-8.4819 6.0034-15.28 11.457-6.7984 5.4536-13.083 10.193-13.966 10.532-0.88281 0.33877-1.9122 1.4162-2.2875 2.3943-1.4292 3.7246 3.1511 1.5156 12.512-6.0342zm-120.22-68.285c1.8536-3.6579 3.0051-7.0158 2.5589-7.462-1.416-1.416-4.3367 3.8477-6.8876 12.413-2.765 9.2845-3.1558 12.862-0.66733 6.1107 0.89418-2.4261 3.1424-7.4039 4.996-11.062zm31.452-23.694c11.079-8.0483 9.6406-10.865-1.596-3.1256-3.6597 2.5205-6.654 5.0518-6.654 5.625 0 2.0359 3.4429 0.99282 8.25-2.4994zm42.137-15.753c1.2443-0.94339 1.8068-1.9844 1.25-2.3135-1.3308-0.78649-6.156 1.0682-7.2082 2.7706-1.1919 1.9285 3.2624 1.5868 5.9582-0.45715z" fill="#b38e8e"/>
<path d="m237.32 624.14c-11.572-2.041-21.64-7.6263-31.921-17.71l-9.3287-9.149 0.01-9.3325c0.0128-12.684 1.9493-23.662 5.6495-32.029 4.3027-9.7293 4.2293-19.722-0.20854-28.372-4.2768-8.3363-5.1531-51.611-1.4464-71.432 1.1572-6.1875 2.7111-15.373 3.4532-20.412 0.74209-5.0389 3.2992-14.32 5.6825-20.625 4.0022-10.588 6.4856-16.195 14.415-32.551 3.9014-8.0468 10.17-12.217 18.748-12.471 5.707-0.16955 7.0942-0.79312 12.212-5.4892 8.6789-7.9635 12.928-9.5946 25.235-9.6872 8.4052-0.0632 11.397-0.59544 14.32-2.5474 11.359-7.5854 41.93 1.1233 41.93 11.945 0 3.218 0.32756 3.3819 8.2297 4.1198 10.297 0.96153 15.266 3.9341 21.778 13.028 6.5649 9.1678 6.6432 8.901-17.803 60.636-6.6509 14.075-6.9898 17.292-1.2539 11.906 19.782-18.577 33.128-20.747 41.651-6.7695 9.1458 14.999 2.9225 23.801-50.102 70.867-39.989 35.496-41.941 37.947-35.7 44.843 1.8358 2.0286-2.0721 42.345-4.9982 51.564-0.80257 2.5286-1.1085 2.6198-9.9266 2.9559-3.4375 0.13104-10.222 1.6955-15.077 3.4766-10.166 3.7296-25.059 5.0849-35.548 3.235zm-9.9591-30.545c8.3794-4.3332 8.5523-15.371 0.30526-19.492-2.2158-1.1071-3.669-2.3727-3.2292-2.8125 1.4822-1.4821-4.6618-0.81449-8.9349 0.97094-4.6206 1.9306-8.5607 6.8576-7.6898 9.6158 0.30192 0.95623 0.89228 3.303 1.3119 5.2149 1.4901 6.7893 11.074 10.207 18.237 6.5026zm26.209-53.803c0-3.9718 6.9953-30.122 9.3527-34.963 4.9834-10.233 23.939-25.208 35.737-28.232l6.4882-1.6629-0.76313-9.4092c-1.6954-20.904-6.4798-27.512-19.968-27.579-18.388-0.0914-32.886-2.0613-40.363-5.4844l-7.1491-3.273-4.8427 3.356c-5.9537 4.1259-11.038 9.8222-15.379 17.23l-3.3013 5.6332 2.1889 9.729c3.1831 14.148 2.9787 33.465-0.47992 45.354-3.6091 12.407-3.6994 21.915-0.22561 23.774 7.6624 4.1008 38.706 8.5335 38.706 5.5268zm13.434-7.1131c0.68203-0.85938 1.6378-3.7662 2.124-6.4596 2.9662-16.433 14.056-29.747 31.483-37.799 11.816-5.4593 21.992-25.429 12.959-25.429-0.6875 0-1.25 1.1136-1.25 2.4747 0 8.3168-3.7051 12.586-15.79 18.195-21.439 9.9507-30.77 22.22-33.701 44.316-0.85378 6.4361 1.0748 8.6076 4.1752 4.701zm-57.952-57.812c-0.437-7.5625-1.3009-14.875-1.9197-16.25-0.73336-1.6295-0.89959 0.54687-0.4774 6.25 0.35627 4.8125 0.70934 14.094 0.78459 20.625 0.1114 9.6673 0.34787 11.062 1.2719 7.5 0.62431-2.4062 0.77756-10.562 0.34056-18.125zm130.85 4.9306c1.7618-0.8952 5.9806-4.0753 9.375-7.0668s9.2654-7.9031 13.047-10.915c9.7599-7.7729 11.601-10.02 9.8931-12.078-1.9606-2.3624-5.5364-0.31999-20.928 11.953-6.9319 5.5277-13.091 10.05-13.687 10.05-1.4797 0-7.7039 9.6575-6.8041 10.557 0.83623 0.83621 4.5361-0.18039 9.1044-2.5016zm-120.77-52.14c2.3822-3.6094 4.931-9.2763 5.664-12.593 0.73295-3.3169 2.8645-8.9419 4.7368-12.5s3.5949-6.8911 3.828-7.4068c0.23311-0.51563-1.0148-0.9375-2.7732-0.9375-3.8919 0-5.0954 2.1709-11.088 20-7.3538 21.88-7.415 24.115-0.36773 13.438zm92.155-4.375c2.9091-3.9531 6.0206-7.9308 6.9144-8.8393 0.89389-0.90848 1.6252-3.2991 1.6252-5.3125 0-2.085 0.67255-3.669 1.5625-3.6798 1.0444-0.0128 0.94494-0.40959-0.29985-1.1966-3.2632-2.0631-14.36 11.51-18.663 22.829-2.4596 6.4693 3.0388 4.111 8.8607-3.8004zm-41.509-3.0482c1.4018-1.5046 2.5487-3.5013 2.5487-4.4371 0-2.3801 3.5459-9.0362 7.0509-13.236 3.0571-3.6628 3.9012-8.8556 1.6642-10.238-3.2646-2.0177-16.215 22.141-16.215 30.248 0 1.309 2.7743-0.0008 4.9513-2.3376zm-24.971-11.795c1.9873-4.3829 4.0762-7.9689 4.6419-7.9689 1.4832 0 7.8781-6.1291 7.8781-7.5506 0-0.65967-2.2031-1.1994-4.8958-1.1994-2.7819 0-5.1399-0.67467-5.4611-1.5625-0.326-0.90109-1.2487-0.10741-2.1798 1.875-0.888 1.8906-2.0868 3.4375-2.6639 3.4375-0.57715 0-1.0494 1.6168-1.0494 3.5928 0 1.9761-0.84375 5.9843-1.875 8.9072-4.4056 12.487-0.011 12.855 5.605 0.46888zm86.111-18.566c5.6734-6.1549 6.0217-7.131 3.339-9.3575-2.4058-1.9966-3.9537-0.88285-8.302 5.9736-6.5483 10.326-3.4088 12.466 4.963 3.3839zm-97.341 1.09c0-1.1039 1.4062-3.6783 3.125-5.7209 3.7352-4.439 3.9373-6.022 0.76876-6.022-2.6002 0-5.2423 3.472-7.3718 9.6875-1.2572 3.6694-1.1562 4.0625 1.0431 4.0625 1.4023 0 2.435-0.8512 2.435-2.007zm24.147-9.4378c3.8943-2.0593 15.853-12.399 15.853-13.707 0-3.6401-13.946 2.4086-18.591 8.0634-0.94355 1.1487-2.4216 2.0885-3.2844 2.0885-2.3622 0-4.5179 3.1731-3.6652 5.3952 0.78064 2.0343 3.2455 1.5661 9.6869-1.84zm36.706-6.6802c5.4294-5.5921 7.208-8.131 5.7053-8.1441-1.2009-0.0105-3.0272-0.61288-4.0584-1.3386-1.4395-1.013-0.93853-1.205 2.157-0.82683 2.2176 0.27093 4.1882 0.0239 4.3792-0.54898 0.19094-0.57287 2.8766-1.5054 5.968-2.0724l5.6208-1.0308-5.2657-1.4922c-8.8433-2.506-21.641 5.3252-23.212 14.204-0.36496 2.0625-1.063 5.0156-1.5512 6.5625-1.5882 5.0322 2.0356 3.1553 10.257-5.3125z" fill="#9b5655"/>
<path d="m237.32 624.14c-11.572-2.041-21.64-7.6263-31.921-17.71l-9.3287-9.149 0.01-9.3325c0.0128-12.684 1.9493-23.662 5.6495-32.029 4.3027-9.7293 4.2293-19.722-0.20854-28.372-4.2768-8.3363-5.1531-51.611-1.4464-71.432 1.1572-6.1875 2.7111-15.373 3.4532-20.412 0.74209-5.0389 3.2992-14.32 5.6825-20.625 4.0022-10.588 6.4856-16.195 14.415-32.551 3.9014-8.0468 10.17-12.217 18.748-12.471 5.707-0.16955 7.0942-0.79312 12.212-5.4892 8.6789-7.9635 12.928-9.5946 25.235-9.6872 8.4052-0.0632 11.397-0.59544 14.32-2.5474 11.359-7.5854 41.93 1.1233 41.93 11.945 0 3.218 0.32756 3.3819 8.2297 4.1198 10.297 0.96153 15.266 3.9341 21.778 13.028 6.5649 9.1678 6.6432 8.901-17.803 60.636-6.6509 14.075-6.9898 17.292-1.2539 11.906 19.782-18.577 33.128-20.747 41.651-6.7695 9.1458 14.999 2.9225 23.801-50.102 70.867-39.989 35.496-41.941 37.947-35.7 44.843 1.8358 2.0286-2.0721 42.345-4.9982 51.564-0.80257 2.5286-1.1085 2.6198-9.9266 2.9559-3.4375 0.13104-10.222 1.6955-15.077 3.4766-10.166 3.7296-25.059 5.0849-35.548 3.235zm25.625-4.8989c2.2676-0.57701-2.9207-0.95421-13.125-0.95421s-15.393 0.3772-13.125 0.95421c2.0625 0.52481 7.9688 0.95421 13.125 0.95421s11.062-0.4294 13.125-0.95421zm-31.552-28.775c3.9385-3.8607 4.7848-5.367 3.6518-6.5-0.81109-0.81108-1.4747-2.4464-1.4747-3.634s-1.3106-3.1902-2.9124-4.4502-2.6981-2.934-2.436-3.72c2.4473-7.342-18.119-0.80123-20.978 6.6715-4.7698 12.47 14.048 21.534 24.149 11.633zm63.427-34.793v-4.8181l-13.438-1.5319c-7.3906-0.84255-15.688-2.1353-18.438-2.8728-2.75-0.73745-8.4724-1.2372-12.716-1.1106-9.4713 0.28259-21.275-1.5253-31.081-4.7603-4.0662-1.3414-7.4828-2.3319-7.5924-2.2011-9.8573 11.768 7.497 19.446 47.015 20.8 14.094 0.48305 28.016 0.97596 30.938 1.0954l5.3125 0.21709v-4.8181zm-40.741-17.369c0.37238-1.2031 1.547-6.4062 2.6103-11.562 5.469-26.521 18.815-42.465 41.542-49.63l6.5887-2.0769v-7.6698c0-10.543-3.0003-19.787-8.341-25.698l-4.4499-4.9255-17.042-0.0148c-17.604-0.0153-27.464-1.6764-33.525-5.6478-8.7828-5.7547-30.628 18.663-27.121 30.315 3.1146 10.349 4.9368 32.199 3.1841 38.181-9.5821 32.702-8.7762 34.981 14.17 40.073 7.5068 1.6656 21.716 0.81316 22.384-1.3428zm39.923-3.041c11.553-7.9949 72.176-63.548 76.535-70.135 11.129-16.818 3.4597-21.535-13.749-8.4574-7.2883 5.5388-14.043 10.071-15.011 10.071-1.9341 0-13.207 10.754-13.207 12.599 0 2.1882-3.9825 1.1415-6.3206-1.6612-4.8385-5.7999 3.4809-32.307 17.428-55.529 2.7643-4.6026 7.6423-7.0872 7.6423-3.8927 0 0.5412 0.70312 0.96256 1.5625 0.93635 2.4481-0.0747-11.021-12.045-14.55-12.931-7.0406-1.7671-9.4671-3.1863-8.7303-5.1063 1.0897-2.8396 6.1951-2.3265 12.269 1.2333 8.134 4.7668 16.091-2.8226 13.816-13.178l-0.85466-3.8913 5.0683 2.5857c2.7876 1.4221 5.4592 2.5857 5.9369 2.5857 1.6936 0-3.9448-5.2848-7.641-7.1618-2.0641-1.0482-4.7592-2.9594-5.9892-4.247-8.6015-9.0052-27.689 2.8312-28.944 17.949-0.49122 5.9172-0.5799 6.1789-1.8312 5.4056-1.507-0.93141-6.0921 4.6479-13.226 16.094-6.3279 10.153-6.4804 12.254-1.2683 17.466 4.115 4.115 5.7567 10.606 6.5116 25.744 0.75704 15.183 0.5868 15.496-10.855 19.996-13.455 5.2912-29.524 19.021-32.365 27.653-3.3426 10.157-6.1948 26.262-4.7423 26.778 0.80096 0.28443 5.3938 0.70077 10.206 0.92519 4.8125 0.22443 10.913 0.51823 13.557 0.65288 3.2136 0.16367 6.114-0.6596 8.75-2.4837zm46.455-121.88c-2.7186-1.8474-8.6148-4.9259-13.103-6.8412-4.4878-1.9153-7.4197-3.4976-6.5153-3.5162 2.536-0.0521 19.222 8.0116 22.731 10.985 4.3591 3.6941 2.778 3.3754-3.1126-0.62739zm5.6126-31.128c-5.1562-2.3218-8.5201-4.2308-7.4752-4.2424 1.0449-0.0115 5.8262 1.9057 10.625 4.2606 11.203 5.4973 9.072 5.485-3.1498-0.0182zm-136.29 88.35c-2.2992-29.499-4.7679-23.856-4.051 9.2614 0.62723 28.978 1.5139 33.48 3.6931 18.75 1.2954-8.7558 1.3747-14.966 0.35795-28.011zm5.1517-32.926c1.4633-2.9219 4.758-7.8438 7.3215-10.938 3.2502-3.9225 4.8952-7.3275 5.4352-11.25 0.42587-3.0938 2.1586-9 3.8504-13.125l3.0761-7.5-2.709-0.8129c-2.5258-0.75794-2.54-0.82273-0.20899-0.95831 1.7118-0.0996 3.7991-2.5562 6.6207-7.7925l4.1207-7.6471-4.1207 0.79666c-4.5238 0.87458-8.4957 4.7802-8.4957 8.3538 0 1.2583-0.60085 2.6591-1.3352 3.113-0.73437 0.45386-1.039 1.5972-0.67691 2.5407 0.36206 0.94353-0.0925 2.1522-1.0102 2.6861-1.9691 1.1454-11.259 25.927-13.87 36.999-2.9323 12.435-2.3124 14.149 2.0021 5.5337zm73.082-13.493c0.77186-0.64059 2.0567-3.3452 2.8552-6.0103 1.91-6.375 5.4386-10.704 11.503-14.112 2.7226-1.5302 4.9502-3.1788 4.9502-3.6635 0-2.6818-4.982-6.0495-10-6.7597-4.0854-0.57825-5.1118-0.43907-3.75 0.50849 2.566 1.7855 0.52411 1.6294-6.875-0.52552l-6.25-1.8202 5.625 0.55035c3.2974 0.32262 4.4307 0.18063 2.7387-0.34314-3.8373-1.1879-3.8988-3.041-0.16467-4.9678 3.2829-1.694 8.1532-1.0606 11.176 1.4535 3.68 3.0607 7.3274 2.1122 9.5023-2.4709 1.1244-2.3695 4.2219-6.0328 6.8833-8.1407 8.389-6.6442 5.6963-17.435-4.844-19.413-8.0157-1.5038-16.865 0.33715-20.056 4.1722-5.203 6.2526-10.211 15.898-10.241 19.723-0.0434 5.6562-1.3356 9.375-3.2576 9.375-3.9885 0-18.224 27.833-16.041 31.365 1.8646 3.017-3.2422 0.64181-6.1395-2.8555-5.266-6.3565-3.5819-15.071 4.1146-21.29 1.9353-1.564 4.1526-4.0751 4.9273-5.5802 1.5215-2.9561 1.1569-3.4248-4.8424-6.2243l-3.1308-1.461 2.9845-0.10153c1.8238-0.062 4.4976-1.8955 6.875-4.714 2.1398-2.5369 4.9828-5.49 6.3179-6.5625 10.789-8.6666 11.332-11.435 2.1863-11.129l-5.8637 0.19638 6.25 0.85724 6.25 0.85724-7.6764 0.19638c-6.9805 0.17858-8.2249 0.64963-13.727 5.1964-3.3279 2.75-6.7258 5-7.551 5-2.4246 0-6.9216 7.2397-6.1017 9.8231 0.49636 1.5639-0.46054 3.5076-2.9235 5.9384-9.3812 9.2586-11.704 29.129-3.4298 29.337 2.1502 0.0542 7.2844 1.4394 11.409 3.0783 7.8418 3.1156 32.759 3.4707 36.317 0.51758zm24.308-54.531c-3.7812-1.6815-5.3529-2.7392-3.4926-2.3504 5.1226 1.0706 9.4053 2.8799 10.32 4.3598 0.4511 0.7299 0.64637 1.2643 0.43393 1.1875-0.21245-0.0768-3.48-1.5154-7.2613-3.1969z" fill="#aa403f"/>
<path d="m237.32 624.14c-11.572-2.041-21.64-7.6263-31.921-17.71l-9.3287-9.149 0.01-9.3325c0.0128-12.684 1.9493-23.662 5.6495-32.029 4.3027-9.7293 4.2293-19.722-0.20854-28.372-4.2768-8.3363-5.1531-51.611-1.4464-71.432 1.1572-6.1875 2.7111-15.373 3.4532-20.412 0.74209-5.0389 3.2992-14.32 5.6825-20.625 4.0022-10.588 6.4856-16.195 14.415-32.551 3.9014-8.0468 10.17-12.217 18.748-12.471 5.707-0.16955 7.0942-0.79312 12.212-5.4892 8.6789-7.9635 12.928-9.5946 25.235-9.6872 8.4052-0.0632 11.397-0.59544 14.32-2.5474 11.359-7.5854 41.93 1.1233 41.93 11.945 0 3.218 0.32756 3.3819 8.2297 4.1198 10.297 0.96153 15.266 3.9341 21.778 13.028 6.5649 9.1678 6.6432 8.901-17.803 60.636-6.6509 14.075-6.9898 17.292-1.2539 11.906 19.782-18.577 33.128-20.747 41.651-6.7695 9.1458 14.999 2.9225 23.801-50.102 70.867-39.989 35.496-41.941 37.947-35.7 44.843 1.8358 2.0286-2.0721 42.345-4.9982 51.564-0.80257 2.5286-1.1085 2.6198-9.9266 2.9559-3.4375 0.13104-10.222 1.6955-15.077 3.4766-10.166 3.7296-25.059 5.0849-35.548 3.235zm25.625-4.8989c2.2676-0.57701-2.9207-0.95421-13.125-0.95421s-15.393 0.3772-13.125 0.95421c2.0625 0.52481 7.9688 0.95421 13.125 0.95421s11.062-0.4294 13.125-0.95421zm-31.552-28.775c3.9385-3.8607 4.7848-5.367 3.6518-6.5-0.81109-0.81108-1.4747-2.4464-1.4747-3.634s-1.3106-3.1902-2.9124-4.4502-2.6981-2.934-2.436-3.72c2.4473-7.342-18.119-0.80123-20.978 6.6715-4.7698 12.47 14.048 21.534 24.149 11.633zm63.427-34.793v-4.8181l-13.438-1.5319c-7.3906-0.84255-15.688-2.1353-18.438-2.8728-2.75-0.73745-8.4724-1.2372-12.716-1.1106-9.4713 0.28259-21.275-1.5253-31.081-4.7603-4.0662-1.3414-7.4828-2.3319-7.5924-2.2011-9.8573 11.768 7.497 19.446 47.015 20.8 14.094 0.48305 28.016 0.97596 30.938 1.0954l5.3125 0.21709v-4.8181zm40.322-46.22c48.878-43.706 53.201-49.681 43.666-60.352-4.5794-5.1253-5.941-4.6503-22.292 7.7758-7.1392 5.4255-13.772 9.8645-14.74 9.8645-1.9341 0-13.207 10.754-13.207 12.599 0 0.63322-1.0871 1.1513-2.4158 1.1513-4.9624 0-3.921-4.4479 5.7293-24.47 27.195-56.423 34.041-75.223 25.463-69.922-0.48902 0.30223-5.3357-1.3917-10.77-3.7642-5.4347-2.3726-9.0376-4.3202-8.0063-4.328 1.0312-0.008 5.4705 1.6867 9.865 3.7656 9.0227 4.2684 9.9924 4.2131 6.3914-0.36482-5.6317-7.1596-23.597-6.912-28.802 0.39688-3.3894 4.7599-7.4262 13.971-6.6636 15.204 0.92671 1.4995-0.80777 6.1187-2.0169 5.3714-2.5073-1.5496-19.557 24.267-18.259 27.648 0.42825 1.116 0.17012 2.7623-0.57363 3.6585-1.011 1.2182-0.76317 1.9447 0.98189 2.8786 5.4224 2.902 9.5784 13.774 10.101 26.425 0.56764 13.736 0.22016 14.334-10.854 18.689-21.061 8.2821-31.015 19.69-35.875 41.113-4.4924 19.803-6.0439 17.963 17.58 20.855 6.875 0.84183 12.926 1.6008 13.447 1.6866 0.52103 0.0857 19.084-16.061 41.25-35.882zm6.0624-95.459c-3.0196-2.1372-9.2071-5.4719-13.75-7.4104s-7.4571-3.5398-6.476-3.5584c2.9042-0.0551 21.816 9.5379 24.373 12.363 3.1509 3.4817 2.3721 3.2199-4.1468-1.394zm-87.126 124.31c0.37238-1.2031 1.547-6.4062 2.6103-11.562 5.469-26.521 18.815-42.465 41.542-49.63l6.5887-2.0769v-7.6698c0-10.543-3.0003-19.787-8.341-25.698l-4.4499-4.9255-17.042-0.0148c-17.604-0.0153-27.464-1.6764-33.525-5.6478-8.7828-5.7547-30.628 18.663-27.121 30.315 3.1146 10.349 4.9368 32.199 3.1841 38.181-9.5821 32.702-8.7762 34.981 14.17 40.073 7.5068 1.6656 21.716 0.81316 22.384-1.3428zm-41.315-49.232c-1.5916-14.31-4.4276-34.399-5.0936-36.08-2.2833-5.7633-2.8662 32.375-0.80202 52.474l0.70337 6.8489 2.8994-8.8938c1.9704-6.044 2.705-10.642 2.2928-14.349zm17.556-62.253c5.4846-3.3897 7.9632-3.2555 15.889 0.86023 6.2293 3.2346 7.7302 3.4601 25.428 3.82l18.808 0.38253 3.0632-7.1631c1.6848-3.9397 6.0441-11.318 9.6875-16.396 3.6434-5.0781 6.6243-9.551 6.6243-9.9398 0-1.8974 8.1314-16.353 12.606-22.409 10.851-14.688-19.244-27.799-31.005-13.508-5.3559 6.5076-10.326 16.059-10.356 19.901-0.0434 5.6562-1.3356 9.375-3.2576 9.375-3.9885 0-18.224 27.833-16.041 31.365 1.1954 1.9342-2.7968 1.2474-4.4703-0.76906-2.2482-2.7088 1.5322-16.045 6.9768-24.612 2.3097-3.6344 6.0943-10.546 8.4102-15.358 2.316-4.8125 5.6607-11.046 7.4327-13.853l3.2219-5.1033-7.0711-0.0512-7.0711-0.0512 6.25 0.89559 6.25 0.89559-7.6764 0.19638c-6.9805 0.17859-8.2249 0.64964-13.727 5.1964-3.3279 2.75-6.7258 5-7.551 5-2.4246 0-6.9216 7.2397-6.1017 9.8231 0.49636 1.5639-0.46054 3.5076-2.9235 5.9384-4.5895 4.5295-11.174 24.618-8.9486 27.299 1.7579 2.1181-1.8673 6.179-4.5851 5.1361-0.99883-0.38329-2.0513-0.69689-2.3388-0.69689-1.6083 0-0.0226-9.4657 3.0777-18.372 3.5569-10.218 3.5595-10.249 0.92078-10.767-2.4812-0.4875-2.4904-0.53184-0.14628-0.71096 1.69-0.12914 3.8351-2.6686 6.6207-7.8381l4.1207-7.6471-4.1207 0.79666c-4.5238 0.87458-8.4957 4.7802-8.4957 8.3538 0 1.2583-0.60085 2.6591-1.3352 3.113-0.73437 0.45386-1.039 1.5972-0.67691 2.5407 0.36206 0.94353-0.0925 2.1522-1.0102 2.6861-3.3408 1.9433-15.658 39.353-15.709 47.714-0.0159 2.5716 1.0438 1.834 7.5215-5.2352 4.147-4.5257 9.4165-9.3883 11.71-10.806zm55.75-33.283-5.625-1.7103 5.625 0.72379c5.584 0.71851 11.652 2.9692 7.5 2.7816-1.0312-0.0466-4.4062-0.85435-7.5-1.795zm26.25-23.881c-3.7812-1.6815-5.3529-2.7392-3.4926-2.3504 5.1226 1.0706 9.4053 2.8799 10.32 4.3598 0.4511 0.7299 0.64637 1.2643 0.43393 1.1875-0.21245-0.0768-3.48-1.5154-7.2613-3.1969z" fill="#9c302f"/>
<path d="m237.32 624.14c-11.572-2.041-21.64-7.6263-31.921-17.71l-9.3287-9.149 0.01-9.3325c0.0128-12.684 1.9493-23.662 5.6495-32.029 4.3027-9.7293 4.2293-19.722-0.20854-28.372-4.2768-8.3363-5.1531-51.611-1.4464-71.432 1.1572-6.1875 2.7111-15.373 3.4532-20.412 0.74209-5.0389 3.2992-14.32 5.6825-20.625 4.0022-10.588 6.4856-16.195 14.415-32.551 3.9014-8.0468 10.17-12.217 18.748-12.471 5.707-0.16955 7.0942-0.79312 12.212-5.4892 8.6789-7.9635 12.928-9.5946 25.235-9.6872 8.4052-0.0632 11.397-0.59544 14.32-2.5474 11.359-7.5854 41.93 1.1233 41.93 11.945 0 3.218 0.32756 3.3819 8.2297 4.1198 10.297 0.96153 15.266 3.9341 21.778 13.028 6.5649 9.1678 6.6432 8.901-17.803 60.636-6.6509 14.075-6.9898 17.292-1.2539 11.906 19.782-18.577 33.128-20.747 41.651-6.7695 9.1458 14.999 2.9225 23.801-50.102 70.867-39.989 35.496-41.941 37.947-35.7 44.843 1.8358 2.0286-2.0721 42.345-4.9982 51.564-0.80257 2.5286-1.1085 2.6198-9.9266 2.9559-3.4375 0.13104-10.222 1.6955-15.077 3.4766-10.166 3.7296-25.059 5.0849-35.548 3.235zm25.625-4.8989c2.2676-0.57701-2.9207-0.95421-13.125-0.95421s-15.393 0.3772-13.125 0.95421c2.0625 0.52481 7.9688 0.95421 13.125 0.95421s11.062-0.4294 13.125-0.95421zm-31.76-28.57c5.2419-5.1384 5.0105-10.414-0.66349-15.123-1.071-0.88883-1.9472-2.3415-1.9472-3.2281 0-6.8912-18.342-1.2921-21.326 6.5101-4.7005 12.288 14.029 21.553 23.937 11.841zm63.639-35.001v-4.8181l-13.438-1.5319c-7.3906-0.84255-15.688-2.1365-18.438-2.8755-2.75-0.73896-8.375-1.2327-12.5-1.0973-9.0363 0.29675-22.421-1.8215-31.715-5.0191-7.9673-2.7412-7.3213-3.0223-8.3882 3.65l-0.84289 5.2711 7.9732 3.5672c11.212 5.0162 13.733 5.407 41.098 6.3706 13.406 0.47206 27.047 0.95795 30.312 1.0797l5.9375 0.22144v-4.8181zm38.9-44.244c46.616-41.493 48.6-43.72 48.6-54.556 0-14.144-6.8246-14.18-25.774-0.13618-7.4242 5.5024-14.201 10.004-15.059 10.004-0.85805 0-4.6682 3.133-8.467 6.9623-12.839 12.942-12.575 7.429 0.99598-20.833 5.7457-11.965 14.494-30.86 19.44-41.989l8.9928-20.234-3.8253-5.2806c-12.471-17.216-37.901-9.9575-39.255 11.205-0.1868 2.9199-0.97368 4.6635-2.2122 4.9021-2.6066 0.502-17.869 23.785-18.032 27.508-0.0716 1.6358-0.79424 3.3845-1.6058 3.8861-1.0218 0.6315-0.47235 1.8479 1.7865 3.955 14.943 13.939 14.599 39.226-0.60976 44.772-7.8912 2.8772-20.994 12.16-27.295 19.336-4.2948 4.8915-6.6754 11.554-10.233 28.638l-2.2806 10.953 3.0762 0.77207c4.0239 1.01 24.922 3.8534 29.736 4.0459 3.2272 0.12905 9.122-4.6282 42.021-33.912zm7.4846-97.435c-3.0196-2.1372-9.2071-5.4719-13.75-7.4104s-7.4571-3.5398-6.476-3.5584c2.9042-0.0551 21.816 9.5379 24.373 12.363 3.1509 3.4817 2.3721 3.2199-4.1468-1.394zm4.8652-31.739c-5.1562-2.3218-8.5201-4.2308-7.4752-4.2424 1.0449-0.0115 5.8262 1.9057 10.625 4.2606 11.203 5.4973 9.072 5.485-3.1498-0.0182zm-91.991 156.05c0.37238-1.2031 1.547-6.4062 2.6103-11.562 5.469-26.521 18.815-42.465 41.542-49.63l6.5887-2.0769v-7.6698c0-10.543-3.0003-19.787-8.341-25.698l-4.4499-4.9255-17.042-0.0148c-17.604-0.0153-27.464-1.6764-33.525-5.6478-8.7828-5.7547-30.628 18.663-27.121 30.315 3.1146 10.349 4.9368 32.199 3.1841 38.181-9.5821 32.702-8.7762 34.981 14.17 40.073 7.5068 1.6656 21.716 0.81316 22.384-1.3428zm-42.278-37.182c2.2892-5.7109 1.6683-20.346-1.4487-34.145-0.98022-4.3395-1.7822-9.5427-1.7822-11.562 0-5.006-2.0141-4.651-2.8504 0.50232-0.54418 3.3534 0.98319 58.525 1.6839 60.825 0.10471 0.34375 0.68555-1.904 1.2908-4.995 0.60519-3.091 2.0032-7.8722 3.1066-10.625zm12.464-69.112c10.006-8.2481 12.115-8.7668 19.806-4.8727 12.359 6.2577 48.25 8.4364 48.25 2.9288 0-2.8876 10.485-21.529 14.864-26.427 1.2407-1.3876 4.0614-6.4523 6.268-11.255 2.2067-4.8025 6.2297-11.669 8.94-15.259 9.6912-12.836 4.3469-19.134-16.236-19.134-13.486 0-24.281 11.009-25.464 25.969-0.29898 3.7796-1.3347 5.8317-4.1306 8.1843-4.4308 3.7283-9.055 12.061-13.13 23.659-3.1162 8.87-4.0293 9.8284-5.948 6.2432-1.569-2.9316 3.4457-18.743 8.1542-25.711 1.9402-2.871 6.6994-11.548 10.576-19.283l7.0484-14.062-7.0336 0.19638-7.0336 0.19638 6.25 0.85724 6.25 0.85724-8.2438 0.19638c-6.6355 0.15807-8.708 0.70937-10.623 2.8259-1.3088 1.4463-4.7229 4.0027-7.5867 5.681-5.8642 3.4367-9.1618 7.7274-9.1902 11.958-0.0181 2.7031-2.4212 7.9655-2.4617 5.3908-0.0105-0.6686-0.80626-0.0919-1.7683 1.2816-2.5007 3.5702-8.35 23.37-7.9568 26.934 0.27083 2.4548-0.23683 2.9999-2.794 2.9999-4.4692 0-4.5114-3.2571-0.21542-16.616 3.6548-11.365 3.6557-11.376 0.99926-11.897-2.5602-0.50223-2.5542-0.52789 0.16378-0.6918 2.0567-0.12404 3.3655-1.5269 4.8232-5.1702 1.1003-2.75 2.3945-5 2.876-5 0.48145 0 1.9672-0.84513 3.3018-1.8781 2.3524-1.8208 2.3534-1.8524 0.0339-1.0376-1.6538 0.58097-2.1135 0.38894-1.4887-0.62194 1.1044-1.787-1.646-1.9129-5.9598-0.27282-3.3148 1.2603-10.353 13.776-7.7889 13.85 0.75903 0.0219 0.35244 0.81862-0.90352 1.7706-4.2684 3.2351-15.783 38.747-15.822 48.798l-0.0195 4.9833 4.3119-6.4028c2.3715-3.5215 6.3688-8.0982 8.8827-10.17zm61.805-38.474-5.625-1.7103 5.625 0.72379c5.584 0.71851 11.652 2.9692 7.5 2.7816-1.0312-0.0466-4.4062-0.85435-7.5-1.795zm26.25-23.881c-3.7812-1.6815-5.3529-2.7392-3.4926-2.3504 5.1226 1.0706 9.4053 2.8799 10.32 4.3598 0.4511 0.7299 0.64637 1.2643 0.43393 1.1875-0.21245-0.0768-3.48-1.5154-7.2613-3.1969z" fill="#6c2323"/>
<path d="m237.32 624.14c-11.572-2.041-21.64-7.6263-31.921-17.71l-9.3287-9.149 0.01-9.3325c0.0128-12.684 1.9493-23.662 5.6495-32.029 4.3027-9.7293 4.2293-19.722-0.20854-28.372-4.2768-8.3363-5.1531-51.611-1.4464-71.432 1.1572-6.1875 2.7111-15.373 3.4532-20.412 0.74209-5.0389 3.2992-14.32 5.6825-20.625 4.0022-10.588 6.4856-16.195 14.415-32.551 3.9014-8.0468 10.17-12.217 18.748-12.471 5.707-0.16955 7.0942-0.79312 12.212-5.4892 8.6789-7.9635 12.928-9.5946 25.235-9.6872 8.4052-0.0632 11.397-0.59544 14.32-2.5474 11.359-7.5854 41.93 1.1233 41.93 11.945 0 3.218 0.32756 3.3819 8.2297 4.1198 10.297 0.96153 15.266 3.9341 21.778 13.028 6.5649 9.1678 6.6432 8.901-17.803 60.636-6.6509 14.075-6.9898 17.292-1.2539 11.906 19.782-18.577 33.128-20.747 41.651-6.7695 9.1458 14.999 2.9225 23.801-50.102 70.867-39.989 35.496-41.941 37.947-35.7 44.843 1.8358 2.0286-2.0721 42.345-4.9982 51.564-0.80257 2.5286-1.1085 2.6198-9.9266 2.9559-3.4375 0.13104-10.222 1.6955-15.077 3.4766-10.166 3.7296-25.059 5.0849-35.548 3.235zm29.996-5.2511c4.705-1.3597 3.2136-1.5228-13.926-1.5228-10.557 0-21.164-0.38245-23.57-0.8499l-4.375-0.8499 4.322 1.8969c9.7569 4.2822 25.406 4.8347 37.549 1.3257zm17.896-11.835c2.162-14.246 4.861-41.726 4.1663-42.421-1.7537-1.7537-2.4754 1.4604-4.0448 18.015-0.89783 9.4703-1.9166 19.891-2.264 23.156-0.74448 6.9986 1.1062 8.0783 2.1425 1.25zm-35.392-7.3142c-1.7188-0.2074-8.1775-0.74699-14.353-1.1991l-11.228-0.82204 4.4212-2.2682c2.4317-1.2475 5.0815-3.7174 5.8886-5.4886 1.3324-2.9243 2.188-3.2391 9.3066-3.4241l7.8393-0.20374-6.7479-0.73376c-4.1975-0.45642-7.0831-1.4424-7.6349-2.6088-0.48788-1.0312-1.8425-3.7031-3.0103-5.9375l-2.1232-4.0625 10.383-0.19354 10.383-0.19353-10-0.92267c-5.5-0.50746-13.724-1.3387-18.277-1.8472-9.8265-1.0977-14.827 1.0777-18.04 7.8481-4.0378 8.5091 3.0183 19.482 13.391 20.824 2.984 0.386 6.8317 0.91399 8.5504 1.1733 1.7188 0.25931 7.9062 0.46378 13.75 0.45441 5.8438-0.01 9.2188-0.18675 7.5-0.39414zm46.25-42.909c0-5.5965-2.536-7.1358-13.346-8.1009-5.3784-0.48013-13.941-1.7265-19.027-2.7696-5.0865-1.0432-10.584-1.5612-12.218-1.1513-4.361 1.0945-22.762-1.4714-31.083-4.3344-10.306-3.5457-10.576-3.4547-10.576 3.5663 0 6.7345 0.007 6.7403 13.75 11.749 6.8974 2.5137 25.881 3.9427 59.688 4.4932l12.812 0.20861v-3.6607zm11.759-18.67c13.524-11.388 47.349-41.853 61.232-55.148 16.057-15.377 20.106-25.056 14.168-33.867-7.2411-10.745-10.436-9.5827-38.922 14.161-20.832 17.364-22.258 23.573 11.661-50.767l10.187-22.326-3.1063-4.0726c-8.2477-10.813-11.966-12.83-24.02-13.026l-7.6657-0.1246-5.4593 8.2998c-3.0026 4.5649-7.1468 11.612-9.2093 15.661-4.8048 9.4316-19.593 32.488-20.351 31.73-0.3179-0.3179 2.0742-4.9628 5.3157-10.322 31.836-52.634 32.193-53.489 24.534-58.721-17.622-12.036-33.484-5.2586-45.38 19.391-2.8761 5.9595-7.0793 13.919-9.3404 17.688-2.2611 3.7691-5.6363 11.034-7.5003 16.145-1.864 5.1108-3.5867 8.6996-3.8282 7.9752-0.64736-1.9421 5.4056-18.602 8.1969-22.561 1.3235-1.877 6.2486-10.903 10.945-20.058 9.7829-19.071 9.7269-19.446-2.7731-18.574-8.856 0.61777-12.239 2.0024-8.485 3.4725 1.8728 0.7334 1.478 0.9663-1.7534 1.0344-9.1601 0.19297-21.483 16.972-29.898 40.71-2.9252 8.2515-4.9706 13.034-4.5453 10.628 1.4496-8.2018 9.2762-29.262 12.989-34.951l3.7029-5.674-3.7694-0.39491c-8.0146-0.83965-25.416 16.067-18.805 18.271 1.018 0.33935 0.67564 1.1259-1.0014 2.3006-10.988 7.6966-20.172 48.876-21.006 94.198-0.65665 35.657 1.1933 47.097 4.5304 28.017 0.83127-4.7529 2.3959-11.113 3.4769-14.133 2.3925-6.685 1.6975-24.716-1.4857-38.542l-2.0798-9.0338 3.4279-6.2982c10.733-19.721 22.105-26.335 35.046-20.385 6.7395 3.0989 9.0084 3.4305 27.794 4.0625l20.456 0.68816 4.7815 5.3885c12.673 14.282 13.237 37.735 0.99493 41.388-11.816 3.5259-29.269 16.854-33.492 25.576-3.3326 6.8842-9.342 33.251-7.9057 34.687 1.0168 1.0168 25.805 5.0992 35.807 5.8973 1.291 0.103 6.9327-3.674 12.537-8.3934zm-50.945-10.794c5.6911-27.331 17.686-41.979 40.933-49.985l7.628-2.627-0.43746-8.5982c-0.57617-11.324-2.7156-18.041-7.7364-24.289l-4.1195-5.1262-16.353-0.0195c-17.535-0.0209-27.822-1.769-34.865-5.9244l-4.3643-2.575-6.1213 4.1224c-12.311 8.2908-19.516 20.844-17.12 29.827 3.7926 14.217 4.6955 33.296 1.9635 41.49-2.9272 8.779-5.8404 25.913-4.8462 28.504 1.4528 3.786 24.827 9.5536 37.038 9.1391l5.538-0.188 2.8631-13.75z" fill="#050303"/>
<g transform="matrix(-1 0 0 1 794.34 0)">
<path d="m262.24 371.35c-0.22162-0.003-0.44409 0.0304-0.65625 0.0996-1.4202 0.73311-2.6606 1.7782-3.9961 2.6543-2.1724 1.5469-4.3859 3.041-6.502 4.6641-1.0237 0.9011-0.786 2.725 0.44922 3.3203 1.3805 0.75352 3.0474 0.29051 4.2637-0.5664 2.8086-1.7193 5.0696-4.146 7.4707-6.3652 0.85912-0.65556 1.307-1.9491 0.63476-2.8848-0.34254-0.58683-0.99921-0.91286-1.6641-0.92188zm-18.85 79.918c-4.7146 0.18518-9.82 3.7162-10.059 8.7324 0.0669 3.4822 3.7425 5.788 6.9277 5.9219 2.8232-0.23559 5.4094-1.7506 7.6641-3.375 2.6943-2.1799 3.639-6.7096 0.97657-9.2891-1.4358-1.4076-3.5356-2.0108-5.5098-1.9902zm121.27 1.3223c-0.94976 0.054-1.6926 0.72684-2.457 1.2168-3.0568 2.194-5.9803 4.566-8.9062 6.9297-3.8708 3.1724-7.7384 6.3596-11.359 9.8184-0.57224 0.60002-1.2873 1.1409-1.5586 1.9551-0.31207 0.91327 0.13171 2.001 0.99805 2.4277 0.71644 0.38549 1.6111 0.24294 2.2598-0.21679 1.6588-1.0726 3.1884-2.3282 4.748-3.5371 4.8846-3.8796 9.6985-7.852 14.402-11.949 1.189-1.0661 2.4235-2.0907 3.4941-3.2793 0.67345-0.75584 0.67744-2.0165-0.0508-2.7363-0.39258-0.42931-0.98961-0.65504-1.5684-0.6289h-0.002zm-76.053 36.064c-0.13452-0.009-0.27048-0.004-0.39844 0.004-1.7386 0.40973-3.1789 1.5852-4.6465 2.5508-3.8794 2.8499-7.5825 5.9955-10.744 9.6367-0.88068 1.0276-1.9779 2.4513-1.2129 3.8457 0.59858 1.2386 2.2682 1.3797 3.3223 0.6543 2.5743-1.6286 4.7183-3.8349 7-5.834 2.72-2.5242 5.4941-5.0002 8.1387-7.5996 0.8535-1.072 0.28042-2.8615-1.0703-3.1816-0.12082-0.0455-0.25416-0.0672-0.38867-0.0762zm-69.914 84.514c-4.7754-0.14805-10.216 4.6655-8.6973 9.623 3.208 5.026 11.782 3.566 14.582-1.1738 1.5685-2.8454 1.0715-7.8024-2.8477-8.1953-0.99683-0.20548-2.0206-0.2785-3.0371-0.25391z" fill="#fff"/>
<path fill="#e7cc87" d="m237.32 624.14c-11.572-2.041-21.64-7.6263-31.921-17.71l-9.3287-9.149 0.01-9.3325c0.0128-12.684 1.9493-23.662 5.6495-32.029 4.3027-9.7293 4.2293-19.722-0.20854-28.372-4.2768-8.3363-5.1531-51.611-1.4464-71.432 1.1572-6.1875 2.7111-15.373 3.4532-20.412 0.74209-5.0389 3.2992-14.32 5.6825-20.625 4.0022-10.588 6.4856-16.195 14.415-32.551 3.9014-8.0468 10.17-12.217 18.748-12.471 5.707-0.16955 7.0942-0.79312 12.212-5.4892 8.6789-7.9635 12.928-9.5946 25.235-9.6872 8.4052-0.0632 11.397-0.59544 14.32-2.5474 11.359-7.5854 41.93 1.1233 41.93 11.945 0 3.218 0.32756 3.3819 8.2297 4.1198 10.297 0.96153 15.266 3.9341 21.778 13.028 6.5649 9.1678 6.6432 8.901-17.803 60.636-6.6509 14.075-6.9898 17.292-1.2539 11.906 19.782-18.577 33.128-20.747 41.651-6.7695 9.1458 14.999 2.9225 23.801-50.102 70.867-39.989 35.496-41.941 37.947-35.7 44.843 1.8358 2.0286-2.0721 42.345-4.9982 51.564-0.80257 2.5286-1.1085 2.6198-9.9266 2.9559-3.4375 0.13104-10.222 1.6955-15.077 3.4766-10.166 3.7296-25.059 5.0849-35.548 3.235zm-16.168-41.193c2.8817-1.5422 3.2527-7.2141 0.54002-8.2551-5.2483-2.014-13.709 5.5811-9.3144 8.3612 2.4101 1.5246 5.804 1.4836 8.7744-0.10613zm67.418-92.28c0.34375-0.31722-0.21875-0.11812-1.25 0.44249-4.1012 2.2294-12.584 9.7062-13.931 12.279-0.78551 1.5002 2.1683-0.61862 6.564-4.7085s8.2734-7.6957 8.6172-8.0129zm66.562-27.526c5.3281-4.4223 9.6875-8.2713 9.6875-8.5532 0-0.68596-13.113 9.7471-19.375 15.415-7.0768 6.4058-1.763 2.6417 9.6875-6.8622zm-110.17-0.84642c5.1762-2.6767 4.8058-8.4704-0.5809-9.0866-6.3808-0.72987-12.176 6.8838-7.3698 9.683 2.9394 1.712 3.5797 1.664 7.9507-0.59636zm13.905-85.666 4.0822-3.8627-5 3.4996c-2.75 1.9248-5.2344 3.663-5.5208 3.8627-0.28646 0.19968 0.12654 0.36306 0.91778 0.36306 0.79123 0 3.2756-1.7382 5.5208-3.8627z"/>
<path fill="#e1d739" d="m237.32 624.14c-11.572-2.041-21.64-7.6263-31.921-17.71l-9.3287-9.149 0.01-9.3325c0.0128-12.684 1.9493-23.662 5.6495-32.029 4.3027-9.7293 4.2293-19.722-0.20854-28.372-4.2768-8.3363-5.1531-51.611-1.4464-71.432 1.1572-6.1875 2.7111-15.373 3.4532-20.412 0.74209-5.0389 3.2992-14.32 5.6825-20.625 4.0022-10.588 6.4856-16.195 14.415-32.551 3.9014-8.0468 10.17-12.217 18.748-12.471 5.707-0.16955 7.0942-0.79312 12.212-5.4892 8.6789-7.9635 12.928-9.5946 25.235-9.6872 8.4052-0.0632 11.397-0.59544 14.32-2.5474 11.359-7.5854 41.93 1.1233 41.93 11.945 0 3.218 0.32756 3.3819 8.2297 4.1198 10.297 0.96153 15.266 3.9341 21.778 13.028 6.5649 9.1678 6.6432 8.901-17.803 60.636-6.6509 14.075-6.9898 17.292-1.2539 11.906 19.782-18.577 33.128-20.747 41.651-6.7695 9.1458 14.999 2.9225 23.801-50.102 70.867-39.989 35.496-41.941 37.947-35.7 44.843 1.8358 2.0286-2.0721 42.345-4.9982 51.564-0.80257 2.5286-1.1085 2.6198-9.9266 2.9559-3.4375 0.13104-10.222 1.6955-15.077 3.4766-10.166 3.7296-25.059 5.0849-35.548 3.235zm-14.015-42.094c3.2054-4.3045 1.4244-7.1903-4.367-7.0759-2.8915 0.0571-4.9677-0.36479-4.6137-0.9375 1.3342-2.1588-0.42909-0.9169-3.3486 2.3584-1.6667 1.8698-2.0106 2.6153-0.76429 1.6567 2.0926-1.6095 2.1993-1.4768 1.3933 1.7345-1.4816 5.9032 7.6714 7.6742 11.7 2.2639zm31.966-51.867c6.6397-32.203 19.464-46.976 48.157-55.476 3.9806-1.1792-0.36375-23.584-6.1116-31.519l-3.7615-5.1926-14.055-0.009c-17.722-0.0119-28.637-1.7116-36.385-5.666l-6.0804-3.1032-5.7946 4.1332c-3.187 2.2733-8.4878 8.0664-11.78 12.873l-5.985 8.7402 1.9718 8.0783c2.4921 10.21 3.986 36.768 2.1926 38.981-5.1282 6.3259-6.5374 30.563-1.8819 32.366 8.3419 3.2319 21.587 5.9741 29.162 6.0375l8.2246 0.0688 2.1263-10.312zm-14.82-53.43c-10.429-4.758-12.238-14.507-4.0809-21.982 9.9815-9.1474 24.706-4.0097 24.706 8.6204 0 5.9602-6.0527 13.328-10.981 13.368-1.1792 0.01-3.269 0.2686-4.644 0.57601-1.375 0.30742-3.625 0.0456-5-0.58168zm7.5256-15.04c1.1276-1.246 1.8644-3.5775 1.6373-5.1811-0.96291-6.7986-14.788-3.0593-14.788 3.9997 0 4.8566 9.086 5.6728 13.151 1.1814zm42.28 29.896c9.147-6.4236 9.3502-7.9582 0.45681-3.4496-7.103 3.6009-16.825 11.852-19.062 16.178-3.3666 6.5104-1.8716 6.4759 4.0344-0.093 3.2229-3.5846 9.7799-9.2705 14.571-12.635zm18.611-11.014c2.2448-2.0057 3.6411-4.0869 3.1031-4.625-0.53807-0.53806-3.0596 1.103-5.6033 3.6467-5.4615 5.4615-3.414 6.2626 2.5002 0.9783zm39.231-10.416c5.3277-4.2969 12.725-10.249 16.438-13.227 6.7594-5.4205 8.0696-8.0184 2.5833-5.1218-1.6058 0.84777-8.4819 6.0034-15.28 11.457-6.7984 5.4536-13.083 10.193-13.966 10.532-0.88281 0.33877-1.9122 1.4162-2.2875 2.3943-1.4292 3.7246 3.1511 1.5156 12.512-6.0342zm-120.22-68.285c1.8536-3.6579 3.0051-7.0158 2.5589-7.462-1.416-1.416-4.3367 3.8477-6.8876 12.413-2.765 9.2845-3.1558 12.862-0.66733 6.1107 0.89418-2.4261 3.1424-7.4039 4.996-11.062zm31.452-23.694c11.079-8.0483 9.6406-10.865-1.596-3.1256-3.6597 2.5205-6.654 5.0518-6.654 5.625 0 2.0359 3.4429 0.99282 8.25-2.4994zm42.137-15.753c1.2443-0.94339 1.8068-1.9844 1.25-2.3135-1.3308-0.78649-6.156 1.0682-7.2082 2.7706-1.1919 1.9285 3.2624 1.5868 5.9582-0.45715z"/>
<path fill="#b38e8e" d="m237.32 624.14c-11.572-2.041-21.64-7.6263-31.921-17.71l-9.3287-9.149 0.01-9.3325c0.0128-12.684 1.9493-23.662 5.6495-32.029 4.3027-9.7293 4.2293-19.722-0.20854-28.372-4.2768-8.3363-5.1531-51.611-1.4464-71.432 1.1572-6.1875 2.7111-15.373 3.4532-20.412 0.74209-5.0389 3.2992-14.32 5.6825-20.625 4.0022-10.588 6.4856-16.195 14.415-32.551 3.9014-8.0468 10.17-12.217 18.748-12.471 5.707-0.16955 7.0942-0.79312 12.212-5.4892 8.6789-7.9635 12.928-9.5946 25.235-9.6872 8.4052-0.0632 11.397-0.59544 14.32-2.5474 11.359-7.5854 41.93 1.1233 41.93 11.945 0 3.218 0.32756 3.3819 8.2297 4.1198 10.297 0.96153 15.266 3.9341 21.778 13.028 6.5649 9.1678 6.6432 8.901-17.803 60.636-6.6509 14.075-6.9898 17.292-1.2539 11.906 19.782-18.577 33.128-20.747 41.651-6.7695 9.1458 14.999 2.9225 23.801-50.102 70.867-39.989 35.496-41.941 37.947-35.7 44.843 1.8358 2.0286-2.0721 42.345-4.9982 51.564-0.80257 2.5286-1.1085 2.6198-9.9266 2.9559-3.4375 0.13104-10.222 1.6955-15.077 3.4766-10.166 3.7296-25.059 5.0849-35.548 3.235zm-9.9591-30.545c8.5719-4.4327 8.5492-15.373-0.0409-19.664-6.0832-3.0389-10.41-2.735-14.904 1.0467-11.08 9.323 1.8268 25.401 14.945 18.618zm27.91-63.416c6.6397-32.203 19.464-46.976 48.157-55.476 3.9806-1.1792-0.36375-23.584-6.1116-31.519l-3.7615-5.1926-14.055-0.009c-17.722-0.0119-28.637-1.7116-36.385-5.666l-6.0804-3.1032-5.7946 4.1332c-3.187 2.2733-8.4878 8.0664-11.78 12.873l-5.985 8.7402 1.9718 8.0783c2.4921 10.21 3.986 36.768 2.1926 38.981-5.1282 6.3259-6.5374 30.563-1.8819 32.366 8.3419 3.2319 21.587 5.9741 29.162 6.0375l8.2246 0.0689 2.1263-10.312zm34.98-38.57c9.147-6.4236 9.3502-7.9582 0.45681-3.4496-7.103 3.6009-16.825 11.852-19.062 16.178-3.3666 6.5104-1.8716 6.4759 4.0344-0.093 3.2229-3.5846 9.7799-9.2705 14.571-12.635zm18.611-11.014c2.2448-2.0057 3.6411-4.0869 3.1031-4.625-0.53807-0.53806-3.0596 1.103-5.6033 3.6467-5.4615 5.4615-3.414 6.2626 2.5002 0.9783zm39.231-10.416c5.3277-4.2969 12.725-10.249 16.438-13.227 6.7594-5.4205 8.0696-8.0184 2.5833-5.1218-1.6058 0.84777-8.4819 6.0034-15.28 11.457-6.7984 5.4536-13.083 10.193-13.966 10.532-0.88281 0.33877-1.9122 1.4162-2.2875 2.3943-1.4292 3.7246 3.1511 1.5156 12.512-6.0342zm-120.22-68.285c1.8536-3.6579 3.0051-7.0158 2.5589-7.462-1.416-1.416-4.3367 3.8477-6.8876 12.413-2.765 9.2845-3.1558 12.862-0.66733 6.1107 0.89418-2.4261 3.1424-7.4039 4.996-11.062zm31.452-23.694c11.079-8.0483 9.6406-10.865-1.596-3.1256-3.6597 2.5205-6.654 5.0518-6.654 5.625 0 2.0359 3.4429 0.99282 8.25-2.4994zm42.137-15.753c1.2443-0.94339 1.8068-1.9844 1.25-2.3135-1.3308-0.78649-6.156 1.0682-7.2082 2.7706-1.1919 1.9285 3.2624 1.5868 5.9582-0.45715z"/>
<path fill="#9b5655" d="m237.32 624.14c-11.572-2.041-21.64-7.6263-31.921-17.71l-9.3287-9.149 0.01-9.3325c0.0128-12.684 1.9493-23.662 5.6495-32.029 4.3027-9.7293 4.2293-19.722-0.20854-28.372-4.2768-8.3363-5.1531-51.611-1.4464-71.432 1.1572-6.1875 2.7111-15.373 3.4532-20.412 0.74209-5.0389 3.2992-14.32 5.6825-20.625 4.0022-10.588 6.4856-16.195 14.415-32.551 3.9014-8.0468 10.17-12.217 18.748-12.471 5.707-0.16955 7.0942-0.79312 12.212-5.4892 8.6789-7.9635 12.928-9.5946 25.235-9.6872 8.4052-0.0632 11.397-0.59544 14.32-2.5474 11.359-7.5854 41.93 1.1233 41.93 11.945 0 3.218 0.32756 3.3819 8.2297 4.1198 10.297 0.96153 15.266 3.9341 21.778 13.028 6.5649 9.1678 6.6432 8.901-17.803 60.636-6.6509 14.075-6.9898 17.292-1.2539 11.906 19.782-18.577 33.128-20.747 41.651-6.7695 9.1458 14.999 2.9225 23.801-50.102 70.867-39.989 35.496-41.941 37.947-35.7 44.843 1.8358 2.0286-2.0721 42.345-4.9982 51.564-0.80257 2.5286-1.1085 2.6198-9.9266 2.9559-3.4375 0.13104-10.222 1.6955-15.077 3.4766-10.166 3.7296-25.059 5.0849-35.548 3.235zm-9.9591-30.545c8.3794-4.3332 8.5523-15.371 0.30526-19.492-2.2158-1.1071-3.669-2.3727-3.2292-2.8125 1.4822-1.4821-4.6618-0.81449-8.9349 0.97094-4.6206 1.9306-8.5607 6.8576-7.6898 9.6158 0.30192 0.95623 0.89228 3.303 1.3119 5.2149 1.4901 6.7893 11.074 10.207 18.237 6.5026zm26.209-53.803c0-3.9718 6.9953-30.122 9.3527-34.963 4.9834-10.233 23.939-25.208 35.737-28.232l6.4882-1.6629-0.76313-9.4092c-1.6954-20.904-6.4798-27.512-19.968-27.579-18.388-0.0914-32.886-2.0613-40.363-5.4844l-7.1491-3.273-4.8427 3.356c-5.9537 4.1259-11.038 9.8222-15.379 17.23l-3.3013 5.6332 2.1889 9.729c3.1831 14.148 2.9787 33.465-0.47992 45.354-3.6091 12.407-3.6994 21.915-0.22561 23.774 7.6624 4.1008 38.706 8.5335 38.706 5.5268zm13.434-7.1131c0.68203-0.85938 1.6378-3.7662 2.124-6.4596 2.9662-16.433 14.056-29.747 31.483-37.799 11.816-5.4593 21.992-25.429 12.959-25.429-0.6875 0-1.25 1.1136-1.25 2.4747 0 8.3168-3.7051 12.586-15.79 18.195-21.439 9.9507-30.77 22.22-33.701 44.316-0.85378 6.4361 1.0748 8.6076 4.1752 4.701zm-57.952-57.812c-0.437-7.5625-1.3009-14.875-1.9197-16.25-0.73336-1.6295-0.89959 0.54687-0.4774 6.25 0.35627 4.8125 0.70934 14.094 0.78459 20.625 0.1114 9.6673 0.34787 11.062 1.2719 7.5 0.62431-2.4062 0.77756-10.562 0.34056-18.125zm130.85 4.9306c1.7618-0.8952 5.9806-4.0753 9.375-7.0668s9.2654-7.9031 13.047-10.915c9.7599-7.7729 11.601-10.02 9.8931-12.078-1.9606-2.3624-5.5364-0.31999-20.928 11.953-6.9319 5.5277-13.091 10.05-13.687 10.05-1.4797 0-7.7039 9.6575-6.8041 10.557 0.83623 0.83621 4.5361-0.18039 9.1044-2.5016zm-120.77-52.14c2.3822-3.6094 4.931-9.2763 5.664-12.593 0.73295-3.3169 2.8645-8.9419 4.7368-12.5s3.5949-6.8911 3.828-7.4068c0.23311-0.51563-1.0148-0.9375-2.7732-0.9375-3.8919 0-5.0954 2.1709-11.088 20-7.3538 21.88-7.415 24.115-0.36773 13.438zm92.155-4.375c2.9091-3.9531 6.0206-7.9308 6.9144-8.8393 0.89389-0.90848 1.6252-3.2991 1.6252-5.3125 0-2.085 0.67255-3.669 1.5625-3.6798 1.0444-0.0128 0.94494-0.40959-0.29985-1.1966-3.2632-2.0631-14.36 11.51-18.663 22.829-2.4596 6.4693 3.0388 4.111 8.8607-3.8004zm-41.509-3.0482c1.4018-1.5046 2.5487-3.5013 2.5487-4.4371 0-2.3801 3.5459-9.0362 7.0509-13.236 3.0571-3.6628 3.9012-8.8556 1.6642-10.238-3.2646-2.0177-16.215 22.141-16.215 30.248 0 1.309 2.7743-0.0008 4.9513-2.3376zm-24.971-11.795c1.9873-4.3829 4.0762-7.9689 4.6419-7.9689 1.4832 0 7.8781-6.1291 7.8781-7.5506 0-0.65967-2.2031-1.1994-4.8958-1.1994-2.7819 0-5.1399-0.67467-5.4611-1.5625-0.326-0.90109-1.2487-0.10741-2.1798 1.875-0.888 1.8906-2.0868 3.4375-2.6639 3.4375-0.57715 0-1.0494 1.6168-1.0494 3.5928 0 1.9761-0.84375 5.9843-1.875 8.9072-4.4056 12.487-0.011 12.855 5.605 0.46888zm86.111-18.566c5.6734-6.1549 6.0217-7.131 3.339-9.3575-2.4058-1.9966-3.9537-0.88285-8.302 5.9736-6.5483 10.326-3.4088 12.466 4.963 3.3839zm-97.341 1.09c0-1.1039 1.4062-3.6783 3.125-5.7209 3.7352-4.439 3.9373-6.022 0.76876-6.022-2.6002 0-5.2423 3.472-7.3718 9.6875-1.2572 3.6694-1.1562 4.0625 1.0431 4.0625 1.4023 0 2.435-0.8512 2.435-2.007zm24.147-9.4378c3.8943-2.0593 15.853-12.399 15.853-13.707 0-3.6401-13.946 2.4086-18.591 8.0634-0.94355 1.1487-2.4216 2.0885-3.2844 2.0885-2.3622 0-4.5179 3.1731-3.6652 5.3952 0.78064 2.0343 3.2455 1.5661 9.6869-1.84zm36.706-6.6802c5.4294-5.5921 7.208-8.131 5.7053-8.1441-1.2009-0.0105-3.0272-0.61288-4.0584-1.3386-1.4395-1.013-0.93853-1.205 2.157-0.82683 2.2176 0.27093 4.1882 0.0239 4.3792-0.54898 0.19094-0.57287 2.8766-1.5054 5.968-2.0724l5.6208-1.0308-5.2657-1.4922c-8.8433-2.506-21.641 5.3252-23.212 14.204-0.36496 2.0625-1.063 5.0156-1.5512 6.5625-1.5882 5.0322 2.0356 3.1553 10.257-5.3125z"/>
<path fill="#aa403f" d="m237.32 624.14c-11.572-2.041-21.64-7.6263-31.921-17.71l-9.3287-9.149 0.01-9.3325c0.0128-12.684 1.9493-23.662 5.6495-32.029 4.3027-9.7293 4.2293-19.722-0.20854-28.372-4.2768-8.3363-5.1531-51.611-1.4464-71.432 1.1572-6.1875 2.7111-15.373 3.4532-20.412 0.74209-5.0389 3.2992-14.32 5.6825-20.625 4.0022-10.588 6.4856-16.195 14.415-32.551 3.9014-8.0468 10.17-12.217 18.748-12.471 5.707-0.16955 7.0942-0.79312 12.212-5.4892 8.6789-7.9635 12.928-9.5946 25.235-9.6872 8.4052-0.0632 11.397-0.59544 14.32-2.5474 11.359-7.5854 41.93 1.1233 41.93 11.945 0 3.218 0.32756 3.3819 8.2297 4.1198 10.297 0.96153 15.266 3.9341 21.778 13.028 6.5649 9.1678 6.6432 8.901-17.803 60.636-6.6509 14.075-6.9898 17.292-1.2539 11.906 19.782-18.577 33.128-20.747 41.651-6.7695 9.1458 14.999 2.9225 23.801-50.102 70.867-39.989 35.496-41.941 37.947-35.7 44.843 1.8358 2.0286-2.0721 42.345-4.9982 51.564-0.80257 2.5286-1.1085 2.6198-9.9266 2.9559-3.4375 0.13104-10.222 1.6955-15.077 3.4766-10.166 3.7296-25.059 5.0849-35.548 3.235zm25.625-4.8989c2.2676-0.57701-2.9207-0.95421-13.125-0.95421s-15.393 0.3772-13.125 0.95421c2.0625 0.52481 7.9688 0.95421 13.125 0.95421s11.062-0.4294 13.125-0.95421zm-31.552-28.775c3.9385-3.8607 4.7848-5.367 3.6518-6.5-0.81109-0.81108-1.4747-2.4464-1.4747-3.634s-1.3106-3.1902-2.9124-4.4502-2.6981-2.934-2.436-3.72c2.4473-7.342-18.119-0.80123-20.978 6.6715-4.7698 12.47 14.048 21.534 24.149 11.633zm63.427-34.793v-4.8181l-13.438-1.5319c-7.3906-0.84255-15.688-2.1353-18.438-2.8728-2.75-0.73745-8.4724-1.2372-12.716-1.1106-9.4713 0.28259-21.275-1.5253-31.081-4.7603-4.0662-1.3414-7.4828-2.3319-7.5924-2.2011-9.8573 11.768 7.497 19.446 47.015 20.8 14.094 0.48305 28.016 0.97596 30.938 1.0954l5.3125 0.21709v-4.8181zm-40.741-17.369c0.37238-1.2031 1.547-6.4062 2.6103-11.562 5.469-26.521 18.815-42.465 41.542-49.63l6.5887-2.0769v-7.6698c0-10.543-3.0003-19.787-8.341-25.698l-4.4499-4.9255-17.042-0.0148c-17.604-0.0153-27.464-1.6764-33.525-5.6478-8.7828-5.7547-30.628 18.663-27.121 30.315 3.1146 10.349 4.9368 32.199 3.1841 38.181-9.5821 32.702-8.7762 34.981 14.17 40.073 7.5068 1.6656 21.716 0.81316 22.384-1.3428zm39.923-3.041c11.553-7.9949 72.176-63.548 76.535-70.135 11.129-16.818 3.4597-21.535-13.749-8.4574-7.2883 5.5388-14.043 10.071-15.011 10.071-1.9341 0-13.207 10.754-13.207 12.599 0 2.1882-3.9825 1.1415-6.3206-1.6612-4.8385-5.7999 3.4809-32.307 17.428-55.529 2.7643-4.6026 7.6423-7.0872 7.6423-3.8927 0 0.5412 0.70312 0.96256 1.5625 0.93635 2.4481-0.0747-11.021-12.045-14.55-12.931-7.0406-1.7671-9.4671-3.1863-8.7303-5.1063 1.0897-2.8396 6.1951-2.3265 12.269 1.2333 8.134 4.7668 16.091-2.8226 13.816-13.178l-0.85466-3.8913 5.0683 2.5857c2.7876 1.4221 5.4592 2.5857 5.9369 2.5857 1.6936 0-3.9448-5.2848-7.641-7.1618-2.0641-1.0482-4.7592-2.9594-5.9892-4.247-8.6015-9.0052-27.689 2.8312-28.944 17.949-0.49122 5.9172-0.5799 6.1789-1.8312 5.4056-1.507-0.93141-6.0921 4.6479-13.226 16.094-6.3279 10.153-6.4804 12.254-1.2683 17.466 4.115 4.115 5.7567 10.606 6.5116 25.744 0.75704 15.183 0.5868 15.496-10.855 19.996-13.455 5.2912-29.524 19.021-32.365 27.653-3.3426 10.157-6.1948 26.262-4.7423 26.778 0.80096 0.28443 5.3938 0.70077 10.206 0.92519 4.8125 0.22443 10.913 0.51823 13.557 0.65288 3.2136 0.16367 6.114-0.6596 8.75-2.4837zm46.455-121.88c-2.7186-1.8474-8.6148-4.9259-13.103-6.8412-4.4878-1.9153-7.4197-3.4976-6.5153-3.5162 2.536-0.0521 19.222 8.0116 22.731 10.985 4.3591 3.6941 2.778 3.3754-3.1126-0.62739zm5.6126-31.128c-5.1562-2.3218-8.5201-4.2308-7.4752-4.2424 1.0449-0.0115 5.8262 1.9057 10.625 4.2606 11.203 5.4973 9.072 5.485-3.1498-0.0182zm-136.29 88.35c-2.2992-29.499-4.7679-23.856-4.051 9.2614 0.62723 28.978 1.5139 33.48 3.6931 18.75 1.2954-8.7558 1.3747-14.966 0.35795-28.011zm5.1517-32.926c1.4633-2.9219 4.758-7.8438 7.3215-10.938 3.2502-3.9225 4.8952-7.3275 5.4352-11.25 0.42587-3.0938 2.1586-9 3.8504-13.125l3.0761-7.5-2.709-0.8129c-2.5258-0.75794-2.54-0.82273-0.20899-0.95831 1.7118-0.0996 3.7991-2.5562 6.6207-7.7925l4.1207-7.6471-4.1207 0.79666c-4.5238 0.87458-8.4957 4.7802-8.4957 8.3538 0 1.2583-0.60085 2.6591-1.3352 3.113-0.73437 0.45386-1.039 1.5972-0.67691 2.5407 0.36206 0.94353-0.0925 2.1522-1.0102 2.6861-1.9691 1.1454-11.259 25.927-13.87 36.999-2.9323 12.435-2.3124 14.149 2.0021 5.5337zm73.082-13.493c0.77186-0.64059 2.0567-3.3452 2.8552-6.0103 1.91-6.375 5.4386-10.704 11.503-14.112 2.7226-1.5302 4.9502-3.1788 4.9502-3.6635 0-2.6818-4.982-6.0495-10-6.7597-4.0854-0.57825-5.1118-0.43907-3.75 0.50849 2.566 1.7855 0.52411 1.6294-6.875-0.52552l-6.25-1.8202 5.625 0.55035c3.2974 0.32262 4.4307 0.18063 2.7387-0.34314-3.8373-1.1879-3.8988-3.041-0.16467-4.9678 3.2829-1.694 8.1532-1.0606 11.176 1.4535 3.68 3.0607 7.3274 2.1122 9.5023-2.4709 1.1244-2.3695 4.2219-6.0328 6.8833-8.1407 8.389-6.6442 5.6963-17.435-4.844-19.413-8.0157-1.5038-16.865 0.33715-20.056 4.1722-5.203 6.2526-10.211 15.898-10.241 19.723-0.0434 5.6562-1.3356 9.375-3.2576 9.375-3.9885 0-18.224 27.833-16.041 31.365 1.8646 3.017-3.2422 0.64181-6.1395-2.8555-5.266-6.3565-3.5819-15.071 4.1146-21.29 1.9353-1.564 4.1526-4.0751 4.9273-5.5802 1.5215-2.9561 1.1569-3.4248-4.8424-6.2243l-3.1308-1.461 2.9845-0.10153c1.8238-0.062 4.4976-1.8955 6.875-4.714 2.1398-2.5369 4.9828-5.49 6.3179-6.5625 10.789-8.6666 11.332-11.435 2.1863-11.129l-5.8637 0.19638 6.25 0.85724 6.25 0.85724-7.6764 0.19638c-6.9805 0.17858-8.2249 0.64963-13.727 5.1964-3.3279 2.75-6.7258 5-7.551 5-2.4246 0-6.9216 7.2397-6.1017 9.8231 0.49636 1.5639-0.46054 3.5076-2.9235 5.9384-9.3812 9.2586-11.704 29.129-3.4298 29.337 2.1502 0.0542 7.2844 1.4394 11.409 3.0783 7.8418 3.1156 32.759 3.4707 36.317 0.51758zm24.308-54.531c-3.7812-1.6815-5.3529-2.7392-3.4926-2.3504 5.1226 1.0706 9.4053 2.8799 10.32 4.3598 0.4511 0.7299 0.64637 1.2643 0.43393 1.1875-0.21245-0.0768-3.48-1.5154-7.2613-3.1969z"/>
<path fill="#9c302f" d="m237.32 624.14c-11.572-2.041-21.64-7.6263-31.921-17.71l-9.3287-9.149 0.01-9.3325c0.0128-12.684 1.9493-23.662 5.6495-32.029 4.3027-9.7293 4.2293-19.722-0.20854-28.372-4.2768-8.3363-5.1531-51.611-1.4464-71.432 1.1572-6.1875 2.7111-15.373 3.4532-20.412 0.74209-5.0389 3.2992-14.32 5.6825-20.625 4.0022-10.588 6.4856-16.195 14.415-32.551 3.9014-8.0468 10.17-12.217 18.748-12.471 5.707-0.16955 7.0942-0.79312 12.212-5.4892 8.6789-7.9635 12.928-9.5946 25.235-9.6872 8.4052-0.0632 11.397-0.59544 14.32-2.5474 11.359-7.5854 41.93 1.1233 41.93 11.945 0 3.218 0.32756 3.3819 8.2297 4.1198 10.297 0.96153 15.266 3.9341 21.778 13.028 6.5649 9.1678 6.6432 8.901-17.803 60.636-6.6509 14.075-6.9898 17.292-1.2539 11.906 19.782-18.577 33.128-20.747 41.651-6.7695 9.1458 14.999 2.9225 23.801-50.102 70.867-39.989 35.496-41.941 37.947-35.7 44.843 1.8358 2.0286-2.0721 42.345-4.9982 51.564-0.80257 2.5286-1.1085 2.6198-9.9266 2.9559-3.4375 0.13104-10.222 1.6955-15.077 3.4766-10.166 3.7296-25.059 5.0849-35.548 3.235zm25.625-4.8989c2.2676-0.57701-2.9207-0.95421-13.125-0.95421s-15.393 0.3772-13.125 0.95421c2.0625 0.52481 7.9688 0.95421 13.125 0.95421s11.062-0.4294 13.125-0.95421zm-31.552-28.775c3.9385-3.8607 4.7848-5.367 3.6518-6.5-0.81109-0.81108-1.4747-2.4464-1.4747-3.634s-1.3106-3.1902-2.9124-4.4502-2.6981-2.934-2.436-3.72c2.4473-7.342-18.119-0.80123-20.978 6.6715-4.7698 12.47 14.048 21.534 24.149 11.633zm63.427-34.793v-4.8181l-13.438-1.5319c-7.3906-0.84255-15.688-2.1353-18.438-2.8728-2.75-0.73745-8.4724-1.2372-12.716-1.1106-9.4713 0.28259-21.275-1.5253-31.081-4.7603-4.0662-1.3414-7.4828-2.3319-7.5924-2.2011-9.8573 11.768 7.497 19.446 47.015 20.8 14.094 0.48305 28.016 0.97596 30.938 1.0954l5.3125 0.21709v-4.8181zm40.322-46.22c48.878-43.706 53.201-49.681 43.666-60.352-4.5794-5.1253-5.941-4.6503-22.292 7.7758-7.1392 5.4255-13.772 9.8645-14.74 9.8645-1.9341 0-13.207 10.754-13.207 12.599 0 0.63322-1.0871 1.1513-2.4158 1.1513-4.9624 0-3.921-4.4479 5.7293-24.47 27.195-56.423 34.041-75.223 25.463-69.922-0.48902 0.30223-5.3357-1.3917-10.77-3.7642-5.4347-2.3726-9.0376-4.3202-8.0063-4.328 1.0312-0.008 5.4705 1.6867 9.865 3.7656 9.0227 4.2684 9.9924 4.2131 6.3914-0.36482-5.6317-7.1596-23.597-6.912-28.802 0.39688-3.3894 4.7599-7.4262 13.971-6.6636 15.204 0.92671 1.4995-0.80777 6.1187-2.0169 5.3714-2.5073-1.5496-19.557 24.267-18.259 27.648 0.42825 1.116 0.17012 2.7623-0.57363 3.6585-1.011 1.2182-0.76317 1.9447 0.98189 2.8786 5.4224 2.902 9.5784 13.774 10.101 26.425 0.56764 13.736 0.22016 14.334-10.854 18.689-21.061 8.2821-31.015 19.69-35.875 41.113-4.4924 19.803-6.0439 17.963 17.58 20.855 6.875 0.84183 12.926 1.6008 13.447 1.6866 0.52103 0.0857 19.084-16.061 41.25-35.882zm6.0624-95.459c-3.0196-2.1372-9.2071-5.4719-13.75-7.4104s-7.4571-3.5398-6.476-3.5584c2.9042-0.0551 21.816 9.5379 24.373 12.363 3.1509 3.4817 2.3721 3.2199-4.1468-1.394zm-87.126 124.31c0.37238-1.2031 1.547-6.4062 2.6103-11.562 5.469-26.521 18.815-42.465 41.542-49.63l6.5887-2.0769v-7.6698c0-10.543-3.0003-19.787-8.341-25.698l-4.4499-4.9255-17.042-0.0148c-17.604-0.0153-27.464-1.6764-33.525-5.6478-8.7828-5.7547-30.628 18.663-27.121 30.315 3.1146 10.349 4.9368 32.199 3.1841 38.181-9.5821 32.702-8.7762 34.981 14.17 40.073 7.5068 1.6656 21.716 0.81316 22.384-1.3428zm-41.315-49.232c-1.5916-14.31-4.4276-34.399-5.0936-36.08-2.2833-5.7633-2.8662 32.375-0.80202 52.474l0.70337 6.8489 2.8994-8.8938c1.9704-6.044 2.705-10.642 2.2928-14.349zm17.556-62.253c5.4846-3.3897 7.9632-3.2555 15.889 0.86023 6.2293 3.2346 7.7302 3.4601 25.428 3.82l18.808 0.38253 3.0632-7.1631c1.6848-3.9397 6.0441-11.318 9.6875-16.396 3.6434-5.0781 6.6243-9.551 6.6243-9.9398 0-1.8974 8.1314-16.353 12.606-22.409 10.851-14.688-19.244-27.799-31.005-13.508-5.3559 6.5076-10.326 16.059-10.356 19.901-0.0434 5.6562-1.3356 9.375-3.2576 9.375-3.9885 0-18.224 27.833-16.041 31.365 1.1954 1.9342-2.7968 1.2474-4.4703-0.76906-2.2482-2.7088 1.5322-16.045 6.9768-24.612 2.3097-3.6344 6.0943-10.546 8.4102-15.358 2.316-4.8125 5.6607-11.046 7.4327-13.853l3.2219-5.1033-7.0711-0.0512-7.0711-0.0512 6.25 0.89559 6.25 0.89559-7.6764 0.19638c-6.9805 0.17859-8.2249 0.64964-13.727 5.1964-3.3279 2.75-6.7258 5-7.551 5-2.4246 0-6.9216 7.2397-6.1017 9.8231 0.49636 1.5639-0.46054 3.5076-2.9235 5.9384-4.5895 4.5295-11.174 24.618-8.9486 27.299 1.7579 2.1181-1.8673 6.179-4.5851 5.1361-0.99883-0.38329-2.0513-0.69689-2.3388-0.69689-1.6083 0-0.0226-9.4657 3.0777-18.372 3.5569-10.218 3.5595-10.249 0.92078-10.767-2.4812-0.4875-2.4904-0.53184-0.14628-0.71096 1.69-0.12914 3.8351-2.6686 6.6207-7.8381l4.1207-7.6471-4.1207 0.79666c-4.5238 0.87458-8.4957 4.7802-8.4957 8.3538 0 1.2583-0.60085 2.6591-1.3352 3.113-0.73437 0.45386-1.039 1.5972-0.67691 2.5407 0.36206 0.94353-0.0925 2.1522-1.0102 2.6861-3.3408 1.9433-15.658 39.353-15.709 47.714-0.0159 2.5716 1.0438 1.834 7.5215-5.2352 4.147-4.5257 9.4165-9.3883 11.71-10.806zm55.75-33.283-5.625-1.7103 5.625 0.72379c5.584 0.71851 11.652 2.9692 7.5 2.7816-1.0312-0.0466-4.4062-0.85435-7.5-1.795zm26.25-23.881c-3.7812-1.6815-5.3529-2.7392-3.4926-2.3504 5.1226 1.0706 9.4053 2.8799 10.32 4.3598 0.4511 0.7299 0.64637 1.2643 0.43393 1.1875-0.21245-0.0768-3.48-1.5154-7.2613-3.1969z"/>
<path fill="#6c2323" d="m237.32 624.14c-11.572-2.041-21.64-7.6263-31.921-17.71l-9.3287-9.149 0.01-9.3325c0.0128-12.684 1.9493-23.662 5.6495-32.029 4.3027-9.7293 4.2293-19.722-0.20854-28.372-4.2768-8.3363-5.1531-51.611-1.4464-71.432 1.1572-6.1875 2.7111-15.373 3.4532-20.412 0.74209-5.0389 3.2992-14.32 5.6825-20.625 4.0022-10.588 6.4856-16.195 14.415-32.551 3.9014-8.0468 10.17-12.217 18.748-12.471 5.707-0.16955 7.0942-0.79312 12.212-5.4892 8.6789-7.9635 12.928-9.5946 25.235-9.6872 8.4052-0.0632 11.397-0.59544 14.32-2.5474 11.359-7.5854 41.93 1.1233 41.93 11.945 0 3.218 0.32756 3.3819 8.2297 4.1198 10.297 0.96153 15.266 3.9341 21.778 13.028 6.5649 9.1678 6.6432 8.901-17.803 60.636-6.6509 14.075-6.9898 17.292-1.2539 11.906 19.782-18.577 33.128-20.747 41.651-6.7695 9.1458 14.999 2.9225 23.801-50.102 70.867-39.989 35.496-41.941 37.947-35.7 44.843 1.8358 2.0286-2.0721 42.345-4.9982 51.564-0.80257 2.5286-1.1085 2.6198-9.9266 2.9559-3.4375 0.13104-10.222 1.6955-15.077 3.4766-10.166 3.7296-25.059 5.0849-35.548 3.235zm25.625-4.8989c2.2676-0.57701-2.9207-0.95421-13.125-0.95421s-15.393 0.3772-13.125 0.95421c2.0625 0.52481 7.9688 0.95421 13.125 0.95421s11.062-0.4294 13.125-0.95421zm-31.76-28.57c5.2419-5.1384 5.0105-10.414-0.66349-15.123-1.071-0.88883-1.9472-2.3415-1.9472-3.2281 0-6.8912-18.342-1.2921-21.326 6.5101-4.7005 12.288 14.029 21.553 23.937 11.841zm63.639-35.001v-4.8181l-13.438-1.5319c-7.3906-0.84255-15.688-2.1365-18.438-2.8755-2.75-0.73896-8.375-1.2327-12.5-1.0973-9.0363 0.29675-22.421-1.8215-31.715-5.0191-7.9673-2.7412-7.3213-3.0223-8.3882 3.65l-0.84289 5.2711 7.9732 3.5672c11.212 5.0162 13.733 5.407 41.098 6.3706 13.406 0.47206 27.047 0.95795 30.312 1.0797l5.9375 0.22144v-4.8181zm38.9-44.244c46.616-41.493 48.6-43.72 48.6-54.556 0-14.144-6.8246-14.18-25.774-0.13618-7.4242 5.5024-14.201 10.004-15.059 10.004-0.85805 0-4.6682 3.133-8.467 6.9623-12.839 12.942-12.575 7.429 0.99598-20.833 5.7457-11.965 14.494-30.86 19.44-41.989l8.9928-20.234-3.8253-5.2806c-12.471-17.216-37.901-9.9575-39.255 11.205-0.1868 2.9199-0.97368 4.6635-2.2122 4.9021-2.6066 0.502-17.869 23.785-18.032 27.508-0.0716 1.6358-0.79424 3.3845-1.6058 3.8861-1.0218 0.6315-0.47235 1.8479 1.7865 3.955 14.943 13.939 14.599 39.226-0.60976 44.772-7.8912 2.8772-20.994 12.16-27.295 19.336-4.2948 4.8915-6.6754 11.554-10.233 28.638l-2.2806 10.953 3.0762 0.77207c4.0239 1.01 24.922 3.8534 29.736 4.0459 3.2272 0.12905 9.122-4.6282 42.021-33.912zm7.4846-97.435c-3.0196-2.1372-9.2071-5.4719-13.75-7.4104s-7.4571-3.5398-6.476-3.5584c2.9042-0.0551 21.816 9.5379 24.373 12.363 3.1509 3.4817 2.3721 3.2199-4.1468-1.394zm4.8652-31.739c-5.1562-2.3218-8.5201-4.2308-7.4752-4.2424 1.0449-0.0115 5.8262 1.9057 10.625 4.2606 11.203 5.4973 9.072 5.485-3.1498-0.0182zm-91.991 156.05c0.37238-1.2031 1.547-6.4062 2.6103-11.562 5.469-26.521 18.815-42.465 41.542-49.63l6.5887-2.0769v-7.6698c0-10.543-3.0003-19.787-8.341-25.698l-4.4499-4.9255-17.042-0.0148c-17.604-0.0153-27.464-1.6764-33.525-5.6478-8.7828-5.7547-30.628 18.663-27.121 30.315 3.1146 10.349 4.9368 32.199 3.1841 38.181-9.5821 32.702-8.7762 34.981 14.17 40.073 7.5068 1.6656 21.716 0.81316 22.384-1.3428zm-42.278-37.182c2.2892-5.7109 1.6683-20.346-1.4487-34.145-0.98022-4.3395-1.7822-9.5427-1.7822-11.562 0-5.006-2.0141-4.651-2.8504 0.50232-0.54418 3.3534 0.98319 58.525 1.6839 60.825 0.10471 0.34375 0.68555-1.904 1.2908-4.995 0.60519-3.091 2.0032-7.8722 3.1066-10.625zm12.464-69.112c10.006-8.2481 12.115-8.7668 19.806-4.8727 12.359 6.2577 48.25 8.4364 48.25 2.9288 0-2.8876 10.485-21.529 14.864-26.427 1.2407-1.3876 4.0614-6.4523 6.268-11.255 2.2067-4.8025 6.2297-11.669 8.94-15.259 9.6912-12.836 4.3469-19.134-16.236-19.134-13.486 0-24.281 11.009-25.464 25.969-0.29898 3.7796-1.3347 5.8317-4.1306 8.1843-4.4308 3.7283-9.055 12.061-13.13 23.659-3.1162 8.87-4.0293 9.8284-5.948 6.2432-1.569-2.9316 3.4457-18.743 8.1542-25.711 1.9402-2.871 6.6994-11.548 10.576-19.283l7.0484-14.062-7.0336 0.19638-7.0336 0.19638 6.25 0.85724 6.25 0.85724-8.2438 0.19638c-6.6355 0.15807-8.708 0.70937-10.623 2.8259-1.3088 1.4463-4.7229 4.0027-7.5867 5.681-5.8642 3.4367-9.1618 7.7274-9.1902 11.958-0.0181 2.7031-2.4212 7.9655-2.4617 5.3908-0.0105-0.6686-0.80626-0.0919-1.7683 1.2816-2.5007 3.5702-8.35 23.37-7.9568 26.934 0.27083 2.4548-0.23683 2.9999-2.794 2.9999-4.4692 0-4.5114-3.2571-0.21542-16.616 3.6548-11.365 3.6557-11.376 0.99926-11.897-2.5602-0.50223-2.5542-0.52789 0.16378-0.6918 2.0567-0.12404 3.3655-1.5269 4.8232-5.1702 1.1003-2.75 2.3945-5 2.876-5 0.48145 0 1.9672-0.84513 3.3018-1.8781 2.3524-1.8208 2.3534-1.8524 0.0339-1.0376-1.6538 0.58097-2.1135 0.38894-1.4887-0.62194 1.1044-1.787-1.646-1.9129-5.9598-0.27282-3.3148 1.2603-10.353 13.776-7.7889 13.85 0.75903 0.0219 0.35244 0.81862-0.90352 1.7706-4.2684 3.2351-15.783 38.747-15.822 48.798l-0.0195 4.9833 4.3119-6.4028c2.3715-3.5215 6.3688-8.0982 8.8827-10.17zm61.805-38.474-5.625-1.7103 5.625 0.72379c5.584 0.71851 11.652 2.9692 7.5 2.7816-1.0312-0.0466-4.4062-0.85435-7.5-1.795zm26.25-23.881c-3.7812-1.6815-5.3529-2.7392-3.4926-2.3504 5.1226 1.0706 9.4053 2.8799 10.32 4.3598 0.4511 0.7299 0.64637 1.2643 0.43393 1.1875-0.21245-0.0768-3.48-1.5154-7.2613-3.1969z"/>
<path fill="#050303" d="m237.32 624.14c-11.572-2.041-21.64-7.6263-31.921-17.71l-9.3287-9.149 0.01-9.3325c0.0128-12.684 1.9493-23.662 5.6495-32.029 4.3027-9.7293 4.2293-19.722-0.20854-28.372-4.2768-8.3363-5.1531-51.611-1.4464-71.432 1.1572-6.1875 2.7111-15.373 3.4532-20.412 0.74209-5.0389 3.2992-14.32 5.6825-20.625 4.0022-10.588 6.4856-16.195 14.415-32.551 3.9014-8.0468 10.17-12.217 18.748-12.471 5.707-0.16955 7.0942-0.79312 12.212-5.4892 8.6789-7.9635 12.928-9.5946 25.235-9.6872 8.4052-0.0632 11.397-0.59544 14.32-2.5474 11.359-7.5854 41.93 1.1233 41.93 11.945 0 3.218 0.32756 3.3819 8.2297 4.1198 10.297 0.96153 15.266 3.9341 21.778 13.028 6.5649 9.1678 6.6432 8.901-17.803 60.636-6.6509 14.075-6.9898 17.292-1.2539 11.906 19.782-18.577 33.128-20.747 41.651-6.7695 9.1458 14.999 2.9225 23.801-50.102 70.867-39.989 35.496-41.941 37.947-35.7 44.843 1.8358 2.0286-2.0721 42.345-4.9982 51.564-0.80257 2.5286-1.1085 2.6198-9.9266 2.9559-3.4375 0.13104-10.222 1.6955-15.077 3.4766-10.166 3.7296-25.059 5.0849-35.548 3.235zm29.996-5.2511c4.705-1.3597 3.2136-1.5228-13.926-1.5228-10.557 0-21.164-0.38245-23.57-0.8499l-4.375-0.8499 4.322 1.8969c9.7569 4.2822 25.406 4.8347 37.549 1.3257zm17.896-11.835c2.162-14.246 4.861-41.726 4.1663-42.421-1.7537-1.7537-2.4754 1.4604-4.0448 18.015-0.89783 9.4703-1.9166 19.891-2.264 23.156-0.74448 6.9986 1.1062 8.0783 2.1425 1.25zm-35.392-7.3142c-1.7188-0.2074-8.1775-0.74699-14.353-1.1991l-11.228-0.82204 4.4212-2.2682c2.4317-1.2475 5.0815-3.7174 5.8886-5.4886 1.3324-2.9243 2.188-3.2391 9.3066-3.4241l7.8393-0.20374-6.7479-0.73376c-4.1975-0.45642-7.0831-1.4424-7.6349-2.6088-0.48788-1.0312-1.8425-3.7031-3.0103-5.9375l-2.1232-4.0625 10.383-0.19354 10.383-0.19353-10-0.92267c-5.5-0.50746-13.724-1.3387-18.277-1.8472-9.8265-1.0977-14.827 1.0777-18.04 7.8481-4.0378 8.5091 3.0183 19.482 13.391 20.824 2.984 0.386 6.8317 0.91399 8.5504 1.1733 1.7188 0.25931 7.9062 0.46378 13.75 0.45441 5.8438-0.01 9.2188-0.18675 7.5-0.39414zm46.25-42.909c0-5.5965-2.536-7.1358-13.346-8.1009-5.3784-0.48013-13.941-1.7265-19.027-2.7696-5.0865-1.0432-10.584-1.5612-12.218-1.1513-4.361 1.0945-22.762-1.4714-31.083-4.3344-10.306-3.5457-10.576-3.4547-10.576 3.5663 0 6.7345 0.007 6.7403 13.75 11.749 6.8974 2.5137 25.881 3.9427 59.688 4.4932l12.812 0.20861v-3.6607zm11.759-18.67c13.524-11.388 47.349-41.853 61.232-55.148 16.057-15.377 20.106-25.056 14.168-33.867-7.2411-10.745-10.436-9.5827-38.922 14.161-20.832 17.364-22.258 23.573 11.661-50.767l10.187-22.326-3.1063-4.0726c-8.2477-10.813-11.966-12.83-24.02-13.026l-7.6657-0.1246-5.4593 8.2998c-3.0026 4.5649-7.1468 11.612-9.2093 15.661-4.8048 9.4316-19.593 32.488-20.351 31.73-0.3179-0.3179 2.0742-4.9628 5.3157-10.322 31.836-52.634 32.193-53.489 24.534-58.721-17.622-12.036-33.484-5.2586-45.38 19.391-2.8761 5.9595-7.0793 13.919-9.3404 17.688-2.2611 3.7691-5.6363 11.034-7.5003 16.145-1.864 5.1108-3.5867 8.6996-3.8282 7.9752-0.64736-1.9421 5.4056-18.602 8.1969-22.561 1.3235-1.877 6.2486-10.903 10.945-20.058 9.7829-19.071 9.7269-19.446-2.7731-18.574-8.856 0.61777-12.239 2.0024-8.485 3.4725 1.8728 0.7334 1.478 0.9663-1.7534 1.0344-9.1601 0.19297-21.483 16.972-29.898 40.71-2.9252 8.2515-4.9706 13.034-4.5453 10.628 1.4496-8.2018 9.2762-29.262 12.989-34.951l3.7029-5.674-3.7694-0.39491c-8.0146-0.83965-25.416 16.067-18.805 18.271 1.018 0.33935 0.67564 1.1259-1.0014 2.3006-10.988 7.6966-20.172 48.876-21.006 94.198-0.65665 35.657 1.1933 47.097 4.5304 28.017 0.83127-4.7529 2.3959-11.113 3.4769-14.133 2.3925-6.685 1.6975-24.716-1.4857-38.542l-2.0798-9.0338 3.4279-6.2982c10.733-19.721 22.105-26.335 35.046-20.385 6.7395 3.0989 9.0084 3.4305 27.794 4.0625l20.456 0.68816 4.7815 5.3885c12.673 14.282 13.237 37.735 0.99493 41.388-11.816 3.5259-29.269 16.854-33.492 25.576-3.3326 6.8842-9.342 33.251-7.9057 34.687 1.0168 1.0168 25.805 5.0992 35.807 5.8973 1.291 0.103 6.9327-3.674 12.537-8.3934zm-50.945-10.794c5.6911-27.331 17.686-41.979 40.933-49.985l7.628-2.627-0.43746-8.5982c-0.57617-11.324-2.7156-18.041-7.7364-24.289l-4.1195-5.1262-16.353-0.0195c-17.535-0.0209-27.822-1.769-34.865-5.9244l-4.3643-2.575-6.1213 4.1224c-12.311 8.2908-19.516 20.844-17.12 29.827 3.7926 14.217 4.6955 33.296 1.9635 41.49-2.9272 8.779-5.8404 25.913-4.8462 28.504 1.4528 3.786 24.827 9.5536 37.038 9.1391l5.538-0.188 2.8631-13.75z"/>
</g>
</g>
</g>
</svg>
